<svg xmlns="http://www.w3.org/2000/svg" xmlns:xlink="http://www.w3.org/1999/xlink" width="66" height="66" viewBox="0 0 66 66">
  <defs>
    <linearGradient id="linear-gradient" x1="0.5" x2="0.5" y2="1" gradientUnits="objectBoundingBox">
      <stop offset="0" stop-color="#217156"/>
      <stop offset="1" stop-color="#81a95a"/>
    </linearGradient>
    <filter id="Subtraction_10" x="0" y="0" width="66" height="66" filterUnits="userSpaceOnUse">
      <feOffset dy="3" input="SourceAlpha"/>
      <feGaussianBlur stdDeviation="3" result="blur"/>
      <feFlood flood-opacity="0.161"/>
      <feComposite operator="in" in2="blur"/>
      <feComposite in="SourceGraphic"/>
    </filter>
  </defs>
  <g transform="matrix(1, 0, 0, 1, 0, 0)" filter="url(#Subtraction_10)">
    <path id="Subtraction_10-2" data-name="Subtraction 10" d="M24,48a24.179,24.179,0,0,1-4.837-.488A23.866,23.866,0,0,1,10.581,43.9a24.071,24.071,0,0,1-8.7-10.559,23.889,23.889,0,0,1-1.4-4.505,24.236,24.236,0,0,1,0-9.674A23.868,23.868,0,0,1,4.1,10.581a24.071,24.071,0,0,1,10.559-8.7,23.881,23.881,0,0,1,4.505-1.4,24.234,24.234,0,0,1,9.674,0A23.866,23.866,0,0,1,37.419,4.1a24.07,24.07,0,0,1,8.7,10.559,23.882,23.882,0,0,1,1.4,4.505,24.236,24.236,0,0,1,0,9.674A23.87,23.87,0,0,1,43.9,37.419a24.071,24.071,0,0,1-10.559,8.7,23.883,23.883,0,0,1-4.505,1.4A24.178,24.178,0,0,1,24,48Zm0-33.149A9.149,9.149,0,1,0,33.149,24,9.159,9.159,0,0,0,24,14.851Z" transform="translate(9 6)" fill="url(#linear-gradient)"/>
  </g>
</svg>
