<svg xmlns="http://www.w3.org/2000/svg" width="180" height="180" viewBox="0 0 180 180">
  <g id="Group_6932" data-name="Group 6932" transform="translate(2016 1460)">
    <g id="Group_6920" data-name="Group 6920" transform="translate(-2016 -1460)">
      <circle id="Ellipse_20" data-name="Ellipse 20" cx="84" cy="84" r="84" transform="translate(7 6)" fill="#fff"/>
      <g id="Group_6775" data-name="Group 6775">
        <g id="Ellipse_17" data-name="Ellipse 17" transform="translate(7 7)" fill="none" stroke="rgba(215,223,35,0.45)" stroke-width="4" stroke-dasharray="16">
          <circle cx="84" cy="84" r="84" stroke="none"/>
          <circle cx="84" cy="84" r="82" fill="none"/>
        </g>
        <g id="Ellipse_18" data-name="Ellipse 18" fill="none" stroke="rgba(215,223,35,0.15)" stroke-width="4" stroke-dasharray="16">
          <circle cx="90" cy="90" r="90" stroke="none"/>
          <circle cx="90" cy="90" r="88" fill="none"/>
        </g>
      </g>
    </g>
    <g id="Group_6926" data-name="Group 6926" transform="translate(-1972.791 -1427.133)">
      <g id="Group_6655" data-name="Group 6655" transform="translate(0 0)">
        <path id="star-svgrepo-com_1_" data-name="star-svgrepo-com (1)" d="M9.7,4.837a.174.174,0,0,0-.14-.118L6.413,4.262,5.008,1.415a.173.173,0,0,0-.311,0L3.291,4.262.149,4.719a.174.174,0,0,0-.1.3L2.327,7.232l-.537,3.13a.174.174,0,0,0,.069.17.172.172,0,0,0,.183.013L4.852,9.067l2.811,1.478a.174.174,0,0,0,.252-.183l-.537-3.13L9.652,5.015A.174.174,0,0,0,9.7,4.837Z" transform="translate(65.109 1.732)" fill="#fff" stroke="#285460" stroke-width="1"/>
        <path id="star-svgrepo-com_1_2" data-name="star-svgrepo-com (1)" d="M15.513,6.949a.278.278,0,0,0-.225-.189l-5.028-.731L8.013,1.473a.277.277,0,0,0-.5,0L5.266,6.029.238,6.76a.278.278,0,0,0-.154.474L3.722,10.78l-.859,5.008a.279.279,0,0,0,.11.272.276.276,0,0,0,.293.021l4.5-2.364,4.5,2.364a.278.278,0,0,0,.4-.293l-.859-5.007,3.638-3.547A.278.278,0,0,0,15.513,6.949Z" transform="translate(78.055 21.15)" fill="#fff" stroke="#285460" stroke-width="1"/>
        <path id="star-svgrepo-com_1_3" data-name="star-svgrepo-com (1)" d="M7.757,4.133a.139.139,0,0,0-.112-.095L5.131,3.673,4.006,1.4a.139.139,0,0,0-.249,0L2.633,3.674.119,4.039a.139.139,0,0,0-.077.237L1.861,6.049l-.43,2.5a.139.139,0,0,0,.055.136.138.138,0,0,0,.146.011L3.882,7.517,6.13,8.7a.139.139,0,0,0,.2-.146L5.9,6.049,7.722,4.276A.139.139,0,0,0,7.757,4.133Z" transform="translate(39.681 7.28)" fill="#fff" stroke="#285460" stroke-width="0.5"/>
        <g id="Group_6653" data-name="Group 6653" transform="translate(53.089 0)">
          <path id="Path_65" data-name="Path 65" d="M-1152,1035.4h3.051" transform="translate(1152 -1033.875)" fill="none" stroke="#285460" stroke-linecap="round" stroke-width="1"/>
          <path id="Path_66" data-name="Path 66" d="M0,0H3.051" transform="matrix(0.035, 0.999, -0.999, 0.035, 1.472, 0)" fill="none" stroke="#285460" stroke-linecap="round" stroke-width="1"/>
        </g>
        <g id="Group_6654" data-name="Group 6654" transform="translate(83.125 6.913)">
          <path id="Path_65-2" data-name="Path 65" d="M-1152,1035.4h5.387" transform="translate(1152 -1032.708)" fill="none" stroke="#285460" stroke-linecap="round" stroke-width="1"/>
          <path id="Path_66-2" data-name="Path 66" d="M0,0H5.387" transform="matrix(0.035, 0.999, -0.999, 0.035, 2.6, 0)" fill="none" stroke="#285460" stroke-linecap="round" stroke-width="1"/>
        </g>
        <g id="Group_6652" data-name="Group 6652" transform="translate(0 22.406)">
          <g id="Group_6651" data-name="Group 6651" transform="translate(3.786 6.015)">
            <path id="Path_63" data-name="Path 63" d="M-1260,1496.451l23.592-22.451s4.566,6.469,9.894,7.991,16.363,0,17.885-2.664,5.327-5.327,5.327-5.327l23.212,22.451v25.115h-9.132v-22.451l-11.035-8.752h-38.052l-11.035,8.752v22.451H-1260Z" transform="translate(1260 -1474)" fill="#fff"/>
            <path id="Path_64" data-name="Path 64" d="M-1203,1573h36.15v22.451H-1203Z" transform="translate(1224.69 -1535.328)" fill="#fff"/>
          </g>
          <path id="sweater-svgrepo-com_1_" data-name="sweater-svgrepo-com (1)" d="M85.977,59.2c0-.027,0-.055,0-.082s-.006-.043-.008-.064-.006-.047-.011-.07-.01-.045-.016-.067-.01-.043-.017-.065-.014-.044-.022-.065-.015-.042-.023-.063-.018-.041-.027-.061-.019-.042-.03-.062-.022-.039-.033-.058-.023-.04-.036-.059-.027-.039-.041-.058-.025-.035-.039-.052-.036-.041-.054-.062-.02-.024-.031-.035L63.112,35.256a1.385,1.385,0,0,0-.671-.38l-9.822-2.337h-.006a1.389,1.389,0,0,0-.2-.031l-.027,0a1.386,1.386,0,0,0-1.155.5l0,0a1.4,1.4,0,0,0-.122.175L51.1,33.2c-.009.015-.038.063-.086.136l-.013.02-.034.05-.058.084h0a9.48,9.48,0,0,1-7.353,3.819l-.039,0q-.257.012-.523.012a9.381,9.381,0,0,1-8.1-4.117,1.385,1.385,0,0,0-.116-.17L34.747,33a1.4,1.4,0,0,0-.137-.144l-.02-.017a1.39,1.39,0,0,0-.153-.116l-.012-.008a1.382,1.382,0,0,0-.173-.092l-.036-.016a1.387,1.387,0,0,0-.18-.062l-.03-.007a1.37,1.37,0,0,0-.177-.031l-.028,0a1.376,1.376,0,0,0-.2,0l-.035,0a1.386,1.386,0,0,0-.2.031H33.36l-5.829,1.387-.051.012-3.942.938a1.385,1.385,0,0,0-.671.38L.394,58.276c-.011.011-.021.024-.031.035s-.037.04-.054.062-.026.034-.039.052-.028.038-.041.058-.024.039-.036.059S.17,58.579.16,58.6s-.02.041-.03.062-.019.04-.027.061-.016.042-.023.063-.015.043-.022.065-.011.043-.017.065-.011.045-.016.067-.007.047-.011.07-.006.043-.009.064,0,.055,0,.082,0,.031,0,.047V85.968a4.02,4.02,0,0,0,2.626,3.766v4.113a1.387,1.387,0,0,0,1.387,1.387h6.464a1.387,1.387,0,0,0,1.387-1.387V89.734a4.02,4.02,0,0,0,2.626-3.766V67.691L22.472,60V97.269a4.02,4.02,0,0,0,2.626,3.766v4.04a1.387,1.387,0,0,0,1.387,1.387H59.494a1.387,1.387,0,0,0,1.387-1.387v-4.04a4.02,4.02,0,0,0,2.626-3.766V60l7.982,7.687V85.968a4.02,4.02,0,0,0,2.626,3.766v4.113A1.387,1.387,0,0,0,75.5,95.233h6.464a1.387,1.387,0,0,0,1.387-1.387V89.734a4.02,4.02,0,0,0,2.626-3.766V59.245C85.979,59.229,85.977,59.213,85.977,59.2ZM9.091,92.46H5.4V89.981H9.09V92.46Zm51.643,4.809a1.241,1.241,0,0,1-.938,1.2,1.368,1.368,0,0,0-.742.039H35.73a1.387,1.387,0,0,0,0,2.774H58.107v2.406H27.872v-2.406h2.311a1.387,1.387,0,0,0,0-2.774H26.926a1.368,1.368,0,0,0-.742-.039,1.24,1.24,0,0,1-.938-1.2V75.812H60.733Zm0-24.23H25.246V66.085l4.247,2.691a1.386,1.386,0,0,0,1.484,0l5.634-3.57,5.635,3.57a1.387,1.387,0,0,0,1.484,0l5.635-3.57L55,68.776a1.386,1.386,0,0,0,1.484,0l4.249-2.692Zm0-10.238-4.991,3.162-5.635-3.57a1.387,1.387,0,0,0-1.484,0l-5.634,3.57-5.635-3.57a1.386,1.386,0,0,0-1.484,0l-5.634,3.57L25.246,62.8V58.13H60.733ZM80.58,92.46H76.889V89.981H80.58Zm2.626-6.492a1.241,1.241,0,0,1-1.239,1.239H75.5a1.241,1.241,0,0,1-1.239-1.239v-33a1.387,1.387,0,1,0-2.774,0V63.84l-8.407-8.1-.017-.014a1.378,1.378,0,0,0-.124-.1l-.028-.021a1.392,1.392,0,0,0-.153-.093l-.03-.014a1.373,1.373,0,0,0-.146-.061l-.03-.011a1.421,1.421,0,0,0-.173-.045l-.036-.005a1.336,1.336,0,0,0-.142-.016l-.053,0H23.828l-.053,0q-.072,0-.142.016l-.036.005a1.349,1.349,0,0,0-.173.045l-.03.011a1.352,1.352,0,0,0-.146.061l-.03.014a1.391,1.391,0,0,0-.153.093l-.028.021a1.387,1.387,0,0,0-.124.1l-.017.014-8.407,8.1V53.012a1.387,1.387,0,0,0-2.774,0V85.968a1.241,1.241,0,0,1-1.239,1.239H4.013a1.241,1.241,0,0,1-1.239-1.239V59.809l21.8-22.329,2.583-.615a18.9,18.9,0,0,0,21.72,7.754,1.387,1.387,0,1,0-.866-2.635,16.108,16.108,0,0,1-17.951-5.809l3.029-.721.037.046.045.057.116.142.039.047q.08.1.169.2l.038.043c.048.054.1.109.149.164l.062.067.151.158.06.061c.072.073.146.146.223.22l.035.033q.1.1.206.192l.079.071q.092.083.189.165l.081.069c.091.077.183.153.28.23l0,0c.094.075.192.15.292.224l.093.068q.113.083.231.165l.1.07q.144.1.294.194l.044.029q.173.109.354.215l.1.059q.136.078.277.154l.123.065q.156.082.318.161l.082.041q.2.1.414.188l.109.045q.163.069.331.134l.143.054q.171.064.348.124l.116.04q.234.077.476.146l.1.028q.2.054.4.1l.163.038q.189.043.383.08l.149.029c.177.032.357.062.54.087l.075.009q.24.032.488.056l.18.016q.21.018.425.029l.179.009c.2.008.4.014.608.014s.408-.006.608-.014l.179-.009q.215-.012.425-.029l.18-.016q.248-.024.488-.056l.075-.009c.184-.026.363-.055.54-.087l.149-.029q.194-.038.383-.08l.162-.038q.2-.048.4-.1l.1-.028q.243-.069.476-.145l.117-.04c.118-.04.234-.081.348-.123l.143-.054q.168-.065.331-.134l.109-.045q.212-.092.414-.188l.082-.041q.161-.079.317-.16l.123-.066q.141-.076.276-.154l.1-.06q.181-.106.354-.215l.046-.03q.149-.1.292-.193l.1-.071q.117-.082.229-.164l.094-.069c.1-.074.2-.148.289-.222l.007-.006c.1-.076.188-.153.279-.229l.082-.07q.1-.083.188-.165l.08-.072q.1-.1.2-.19l.037-.035c.077-.074.15-.147.222-.219l.062-.063.149-.156.065-.069.146-.16.041-.045c.059-.067.114-.131.168-.195l.041-.05.114-.139.047-.059.036-.045,3.028.72a17.51,17.51,0,0,1-3.407,3.436,1.387,1.387,0,1,0,1.673,2.212,20.194,20.194,0,0,0,4.64-4.957l2.581.614,21.8,22.328Z" transform="translate(0 -32.502)" fill="#285460"/>
        </g>
      </g>
      <rect id="Rectangle_972" data-name="Rectangle 972" width="37.221" height="17.37" transform="translate(24.045 46.942)" fill="#54a958"/>
      <path id="Path_68" data-name="Path 68" d="M-127.2,2410l9.264,11.91,9.1-7.609,9.926,6.452,8.6-8.437" transform="translate(150.252 -2362.231)" fill="none" stroke="#285460" stroke-width="1"/>
    </g>
  </g>
</svg>
