<svg xmlns="http://www.w3.org/2000/svg" width="79" height="79" viewBox="0 0 79 79">
  <g id="Group_6904" data-name="Group 6904" transform="translate(-317 -76)">
    <path id="Path_1266" data-name="Path 1266" d="M39.5,0A39.5,39.5,0,1,1,0,39.5,39.5,39.5,0,0,1,39.5,0Z" transform="translate(317 76)" fill="#285460"/>
    <g id="Rocket_1_" transform="translate(324 118.308) rotate(-45)">
      <path id="Path_1213" data-name="Path 1213" d="M45.77,6.364A6.348,6.348,0,0,0,44.083,1.68c-4.494-4.477-16.31.284-26.905,10.843A14.989,14.989,0,0,0,16.1,13.735a2.48,2.48,0,0,0-.386-.121c-3.051-.713-12.844.951-15.7,12.34a.715.715,0,0,0,1.113.753C5,23.9,8.109,22.771,10.818,23.186c-.187.339-.377.67-.573.986a.715.715,0,0,0,.1.883l1.122,1.119-2.1,2.093a.715.715,0,0,0,0,1.013L16.4,36.286a.715.715,0,0,0,1.01,0l2.1-2.1,1.125,1.122a.715.715,0,0,0,.88.1q.443-.273.918-.534c.465,2.723-.662,5.847-3.514,9.753A.715.715,0,0,0,19.5,45.77a.729.729,0,0,0,.172-.021c11.4-2.835,13.085-12.594,12.382-15.637a2.247,2.247,0,0,0-.16-.462A15.133,15.133,0,0,0,33.2,28.5C40.838,20.9,45.77,12.2,45.77,6.364ZM11.484,21.847c-2.79-.588-5.856.23-9.5,2.548A13.884,13.884,0,0,1,9.6,15.973a12.44,12.44,0,0,1,4.782-1.06,5.987,5.987,0,0,1,.754.043ZM16.9,34.77l-6.016-6,1.6-1.589,5.2,5.179.819.816Zm12.8,1.4a13.883,13.883,0,0,1-8.465,7.617c2.321-3.625,3.142-6.679,2.553-9.461l6.918-3.64A11.375,11.375,0,0,1,29.7,36.168Zm-4.894-4.082c-1.258.606-2.456,1.181-3.555,1.819l-9.5-9.467c.513-.878.987-1.832,1.468-2.818l2.9-5.483a15.582,15.582,0,0,1,2.061-2.6C27.88,3.875,39.274-1.09,43.073,2.693A4.985,4.985,0,0,1,44.34,6.364c0,5.4-4.881,13.886-12.145,21.127C30.172,29.507,27.445,30.818,24.808,32.086Z" transform="translate(0 0)" fill="#d7df23"/>
      <path id="Path_1214" data-name="Path 1214" d="M1.264,1.254a4.284,4.284,0,0,0,0,6.077,4.327,4.327,0,0,0,6.094,0,4.285,4.285,0,0,0,0-6.077A4.328,4.328,0,0,0,1.264,1.254ZM6.349,6.317a2.9,2.9,0,0,1-4.077,0,2.854,2.854,0,0,1,0-4.049,2.9,2.9,0,0,1,4.077,0,2.856,2.856,0,0,1,0,4.049Z" transform="translate(29.291 7.938)" fill="#d7df23"/>
      <path id="Path_1215" data-name="Path 1215" d="M8.37.21a.715.715,0,0,0-1.011,0L.21,7.333A.715.715,0,1,0,1.22,8.346L8.368,1.222A.715.715,0,0,0,8.37.21Z" transform="translate(3.405 33.508)" fill="#d7df23"/>
      <path id="Path_1216" data-name="Path 1216" d="M.715,6.122a.715.715,0,0,0,.5-.209L5.927,1.222A.715.715,0,0,0,4.917.209L.21,4.9a.715.715,0,0,0,.5,1.221Z" transform="translate(3.379 31.047)" fill="#d7df23"/>
      <path id="Path_1217" data-name="Path 1217" d="M4.917.209.21,4.9A.715.715,0,1,0,1.22,5.914L5.927,1.222A.715.715,0,0,0,4.917.209Z" transform="translate(8.315 35.966)" fill="#d7df23"/>
    </g>
  </g>
</svg>
