<svg xmlns="http://www.w3.org/2000/svg" xmlns:xlink="http://www.w3.org/1999/xlink" width="180" height="180" viewBox="0 0 180 180">
  <defs>
    <filter id="Path_18" x="49.624" y="48.221" width="97.953" height="115.762" filterUnits="userSpaceOnUse">
      <feOffset dx="13" dy="15" input="SourceAlpha"/>
      <feGaussianBlur stdDeviation="6.5" result="blur"/>
      <feFlood flood-opacity="0.161"/>
      <feComposite operator="in" in2="blur"/>
      <feComposite in="SourceGraphic"/>
    </filter>
    <filter id="Path_32" x="77.813" y="91.102" width="80.608" height="84.131" filterUnits="userSpaceOnUse">
      <feOffset dy="15" input="SourceAlpha"/>
      <feGaussianBlur stdDeviation="5" result="blur-2"/>
      <feFlood flood-opacity="0.161"/>
      <feComposite operator="in" in2="blur-2"/>
      <feComposite in="SourceGraphic"/>
    </filter>
  </defs>
  <g id="Group_6934" data-name="Group 6934" transform="translate(2534 1460)">
    <g id="Group_6918" data-name="Group 6918" transform="translate(-2534 -1460)">
      <circle id="Ellipse_20" data-name="Ellipse 20" cx="84" cy="84" r="84" transform="translate(7 6)" fill="#fff"/>
      <g id="Group_6775" data-name="Group 6775">
        <g id="Ellipse_17" data-name="Ellipse 17" transform="translate(7 7)" fill="none" stroke="rgba(215,223,35,0.45)" stroke-width="4" stroke-dasharray="16">
          <circle cx="84" cy="84" r="84" stroke="none"/>
          <circle cx="84" cy="84" r="82" fill="none"/>
        </g>
        <g id="Ellipse_18" data-name="Ellipse 18" fill="none" stroke="rgba(215,223,35,0.15)" stroke-width="4" stroke-dasharray="16">
          <circle cx="90" cy="90" r="90" stroke="none"/>
          <circle cx="90" cy="90" r="88" fill="none"/>
        </g>
      </g>
    </g>
    <g id="Group_6924" data-name="Group 6924" transform="translate(-2479.017 -1409.397)">
      <g id="Group_6639" data-name="Group 6639" transform="translate(0 0)">
        <g id="Group_6629" data-name="Group 6629" transform="translate(0 0)">
          <g transform="matrix(1, 0, 0, 1, -54.98, -50.6)" filter="url(#Path_18)">
            <path id="Path_18-2" data-name="Path 18" d="M0,0H46.671L58.953,12.282v64.48H0Z" transform="translate(56.12 52.72)" fill="#fff"/>
          </g>
          <g id="signing-the-contract-svgrepo-com">
            <g id="Group_6620" data-name="Group 6620">
              <g id="Group_6619" data-name="Group 6619">
                <path id="Path_10" data-name="Path 10" d="M63.9,14.993H75.51V55.335l2.262-5.413V14.993a1.582,1.582,0,0,0-.462-1.116L63.9.462A1.578,1.578,0,0,0,62.78,0H21.3a4.739,4.739,0,0,0-4.734,4.733V76.265A4.739,4.739,0,0,0,21.3,81H73.039a4.739,4.739,0,0,0,4.734-4.733V49.922L75.51,55.335V78.793H18.972V2.205H63.9V14.993C63.9,16.073,62.816,14.993,63.9,14.993Z" transform="translate(-16.566 0)" fill="#285460"/>
              </g>
            </g>
          </g>
          <path id="Path_20" data-name="Path 20" d="M75.492,71.319H90.534a1.929,1.929,0,1,0,0-3.857H75.492a1.929,1.929,0,1,0,0,3.857Z" transform="translate(-65.259 -37.183)" fill="#54a958"/>
          <path id="Path_21" data-name="Path 21" d="M104.034,119.391a1.929,1.929,0,0,0-1.929-1.929H75.492a1.929,1.929,0,1,0,0,3.857h26.614A1.929,1.929,0,0,0,104.034,119.391Z" transform="translate(-65.259 -77.54)" fill="#54a958"/>
          <path id="Path_22" data-name="Path 22" d="M75.492,171.319H90.534a1.929,1.929,0,1,0,0-3.857H75.492a1.929,1.929,0,1,0,0,3.857Z" transform="translate(-65.259 -117.897)" fill="#54a958"/>
          <path id="Path_23" data-name="Path 23" d="M75.492,221.319H90.534a1.929,1.929,0,1,0,0-3.857H75.492a1.929,1.929,0,1,0,0,3.857Z" transform="translate(-65.259 -158.255)" fill="#54a958"/>
        </g>
        <text id="RFQ" transform="translate(7.249 17.892)" fill="#54a958" font-size="9" font-family="NexaBold, Nexa" letter-spacing="0.052em"><tspan x="0" y="0">RFQ</tspan></text>
        <g id="Group_6638" data-name="Group 6638" transform="translate(37.83 40.499)">
          <g id="Group_6637" data-name="Group 6637" transform="translate(0 17.005) rotate(-31)">
            <path id="Path_31" data-name="Path 31" d="M.862,1.725,0,0" transform="translate(8.009 25.632)" fill="#54a958"/>
            <g transform="matrix(0.86, 0.52, -0.52, 0.86, -23.88, -140.47)" filter="url(#Path_32)">
              <path id="Path_32-2" data-name="Path 32" d="M33.016,22.778c0-1.369-1.552-2.489-3.449-2.489s-.862,1.12-.862,2.489V19.667c0-1.369-1.552-2.489-3.449-2.489s-3.449,1.12-3.449,2.489V17.178c0-1.369-1.552-2.489-3.449-2.489s-3.449,1.12-3.449,2.489V9.71c0-1.369.476-9.674-1.421-9.674-1.573,0-2.068-.524-2.366,2.4-.039.373-.525,7.041-.525,7.275V25.889l-1.552-1.68a3.15,3.15,0,0,0-1.035-.933c-.776-.56.086,1.68-.862,1.369-.862-.249-3.656-6.474-4.519-6.536s.094-.544-.6-.358c-.345.124.261-.175-.084-.051C.914,18.2,0,18.277,0,18.463s3.439,8.733,6.285,12.4a36.263,36.263,0,0,0,5.174,4.978v1.867c0,3.111.862,5.6,5.174,5.6h8.623c3.363,0,4.225-2.053,5-4.418a4.06,4.06,0,0,1,1.035-1.8,5.717,5.717,0,0,0,1.725-4.356V22.778Z" transform="translate(92.81 108.11) rotate(-31)" fill="#54a958"/>
            </g>
          </g>
          <g id="tap-svgrepo-com" transform="translate(5.474 6.287)">
            <g id="Group_6631" data-name="Group 6631" transform="translate(0 0)">
              <g id="Group_6630" data-name="Group 6630">
                <path id="Path_25" data-name="Path 25" d="M130.17,134.539a18.783,18.783,0,0,1-1.284-5.307,17.211,17.211,0,0,0-2.492-7.591l-5.33-9.075a3.513,3.513,0,0,0-4.572-1.21,3.252,3.252,0,0,0-1.174,1.15,4.217,4.217,0,0,0-5.437-1.122,4.1,4.1,0,0,0-1.842,2.16,4.225,4.225,0,0,0-4.66-.332,4.1,4.1,0,0,0-1.848,2.179l-7.806-10.677c-1.486-2.061-3.448-2.683-5.246-1.661a3.577,3.577,0,0,0-1.749,2.206,4.275,4.275,0,0,0,.544,3.28l12.191,19.146a.894.894,0,0,0,1.509-.96L88.8,107.608a2.486,2.486,0,0,1-.343-1.884,1.8,1.8,0,0,1,.9-1.115c.98-.558,1.961-.171,2.918,1.157l9.62,13.158a.894.894,0,0,0,1.492-.981,2.272,2.272,0,0,1-.239-1.749,2.325,2.325,0,0,1,1.109-1.427,2.419,2.419,0,0,1,3.269.855l.82,1.4a.894.894,0,0,0,1.542-.9v0a2.266,2.266,0,0,1-.238-1.748,2.322,2.322,0,0,1,1.11-1.426,2.414,2.414,0,0,1,3.267.856l1.23,2.093a.894.894,0,0,0,1.542-.9l0,0a1.467,1.467,0,0,1-.133-1.129,1.532,1.532,0,0,1,.706-.942,1.722,1.722,0,0,1,2.149.56l5.329,9.076a15.312,15.312,0,0,1,2.261,6.909,20.787,20.787,0,0,0,1.117,5.024l-15.755,8.943c-5.807-6.14-16.633-11.8-22.079-13.238-.968-.256-2.712-.8-3.036-.9l.131-.456c.342-1.257,3.062-2.792,4.347-2.458l3.862,1.018a.893.893,0,1,0,.456-1.728l-3.863-1.019c-2.216-.581-5.933,1.537-6.523,3.7l-.147.507c-.009.031-.016.064-.022.1a1.712,1.712,0,0,0,1,1.962c.03.013.063.025.094.036.087.027,2.122.672,3.249.97,5.387,1.419,16.245,7.139,21.692,13.234a.9.9,0,0,0,1.108.182l17.044-9.674A.894.894,0,0,0,130.17,134.539Z" transform="translate(-85.567 -102.571)" fill="#285460"/>
              </g>
            </g>
          </g>
        </g>
      </g>
    </g>
  </g>
</svg>
