<svg xmlns="http://www.w3.org/2000/svg" width="95.129" height="106.505" viewBox="0 0 95.129 106.505">
  <g id="Group_6910" data-name="Group 6910" transform="translate(-893.871 -5221.901)">
    <g id="factory-svgrepo-com_1_" data-name="factory-svgrepo-com (1)" transform="translate(893.871 5262.312)">
      <path id="Path_1273" data-name="Path 1273" d="M78.272,128.341H0v-18.66H5.332V88.721L20.356,78.179V88.721L35.379,78.179V88.721L50.4,78.179V98.9h5.184L58.4,62.247H67L69.46,98.9h5.781v10.784h3.03ZM24.536,101.624H12.724v10.9H24.536Zm20.354,0H33.078v10.9H44.89Zm20.61,0H53.688v10.9H65.5Z" transform="translate(0 -62.247)" fill="#285460"/>
    </g>
    <g id="Group_6858" data-name="Group 6858">
      <g id="Group_6857" data-name="Group 6857" transform="translate(932.509 5221.901)">
        <g id="leaf-svgrepo-com_1_" data-name="leaf-svgrepo-com (1)" transform="translate(28.962 0) rotate(7)">
          <path id="Path_1276" data-name="Path 1276" d="M23.542,0a22.158,22.158,0,0,1-6.62,4.329C-8.548,13.542,2.194,31.5,2.544,31.555A14.659,14.659,0,0,1,5.9,27.649c12.243-9,14.731-19.36,14.731-19.36S17.886,20.755,6.994,28.512C4.588,30.224,2.959,34.44,2.27,38.654c0,0,1.705-.689,2.439-.876A13.567,13.567,0,0,1,6.6,32.53C21.826,34.342,26.811,22.076,27.463,17.8A26.425,26.425,0,0,0,23.542,0Z" transform="translate(0 0)" fill="#54a958"/>
        </g>
        <g id="leaf-svgrepo-com_1_2" data-name="leaf-svgrepo-com (1)" transform="matrix(0.559, -0.829, 0.829, 0.559, 0, 25.585)">
          <path id="Path_1276-2" data-name="Path 1276" d="M15.493,0a14.582,14.582,0,0,1-4.357,2.849C-5.626,8.912,1.444,20.728,1.674,20.767A9.647,9.647,0,0,1,3.884,18.2c8.057-5.923,9.695-12.741,9.695-12.741A24.467,24.467,0,0,1,4.6,18.764c-1.583,1.127-2.655,3.9-3.109,6.675,0,0,1.122-.453,1.6-.576a8.929,8.929,0,0,1,1.247-3.454c10.018,1.193,13.3-6.88,13.728-9.695A17.391,17.391,0,0,0,15.493,0Z" transform="translate(0 0)" fill="#54a958"/>
        </g>
      </g>
    </g>
  </g>
</svg>
