<svg xmlns="http://www.w3.org/2000/svg" width="78" height="78" viewBox="0 0 78 78">
  <g id="Group_6903" data-name="Group 6903" transform="translate(-318 -77)">
    <path id="Path_1265" data-name="Path 1265" d="M39,0A39,39,0,1,1,0,39,39,39,0,0,1,39,0Z" transform="translate(318 77)" fill="#285460"/>
    <g id="Group_6842" data-name="Group 6842" transform="translate(332 87.04)">
      <g id="bulb-svgrepo-com" transform="translate(0)">
        <g id="Group_6843" data-name="Group 6843" transform="translate(23.915)">
          <g id="Group_6842-2" data-name="Group 6842">
            <path id="Path_1257" data-name="Path 1257" d="M248.75,0a.916.916,0,0,0-.916.916V5.892a.916.916,0,1,0,1.831,0V.916A.916.916,0,0,0,248.75,0Z" transform="translate(-247.834)" fill="#d7df23"/>
          </g>
        </g>
        <g id="Group_6845" data-name="Group 6845" transform="translate(10.299 3.468)">
          <g id="Group_6844" data-name="Group 6844">
            <path id="Path_1258" data-name="Path 1258" d="M130.488,35.775l-2.38-4.37a.916.916,0,1,0-1.608.876l2.38,4.37a.916.916,0,1,0,1.608-.876Z" transform="translate(-126.388 -30.927)" fill="#d7df23"/>
          </g>
        </g>
        <g id="Group_6847" data-name="Group 6847" transform="translate(0 13.026)">
          <g id="Group_6846" data-name="Group 6846">
            <path id="Path_1259" data-name="Path 1259" d="M40.127,119.026l-4.181-2.7a.916.916,0,0,0-.993,1.538l4.181,2.7a.915.915,0,1,0,.993-1.538Z" transform="translate(-34.534 -116.18)" fill="#d7df23"/>
          </g>
        </g>
        <g id="Group_6849" data-name="Group 6849" transform="translate(35.151 3.468)">
          <g id="Group_6848" data-name="Group 6848">
            <path id="Path_1260" data-name="Path 1260" d="M351.781,31.039a.915.915,0,0,0-1.242.366l-2.38,4.37a.916.916,0,1,0,1.608.876l2.38-4.37A.916.916,0,0,0,351.781,31.039Z" transform="translate(-348.047 -30.927)" fill="#d7df23"/>
          </g>
        </g>
        <g id="Group_6851" data-name="Group 6851" transform="translate(43.65 13.027)">
          <g id="Group_6850" data-name="Group 6850">
            <path id="Path_1261" data-name="Path 1261" d="M429.71,116.6a.916.916,0,0,0-1.266-.273l-4.181,2.7a.916.916,0,1,0,.993,1.538l4.181-2.7A.916.916,0,0,0,429.71,116.6Z" transform="translate(-423.844 -116.183)" fill="#d7df23"/>
          </g>
        </g>
        <g id="Group_6853" data-name="Group 6853" transform="translate(13.012 8.682)">
          <g id="Group_6852" data-name="Group 6852">
            <path id="Path_1262" data-name="Path 1262" d="M173.8,82.193a15.936,15.936,0,0,0-22.962.246.916.916,0,1,0,1.326,1.263,14.157,14.157,0,0,1,21.708,18.084c-.016.022-.031.045-.045.068l-.112.186c-.437.728-.839,1.4-1.208,2.018a.916.916,0,1,0,1.575.934c.367-.619.767-1.284,1.2-2.009l.091-.152A16.013,16.013,0,0,0,173.8,82.193Z" transform="translate(-150.583 -77.431)" fill="#d7df23"/>
          </g>
        </g>
        <g id="Group_6855" data-name="Group 6855" transform="translate(8.819 16.32)">
          <g id="Group_6854" data-name="Group 6854">
            <path id="Path_1263" data-name="Path 1263" d="M138.719,167.375a.916.916,0,0,0-1.233.4,15.968,15.968,0,0,0-1.586,4.291H122.5c-.545-2.764-1.953-5.108-4.558-9.444l-.164-.273c-.014-.023-.029-.046-.045-.068a14.067,14.067,0,0,1-.827-15.344.915.915,0,1,0-1.585-.916,15.9,15.9,0,0,0,.909,17.305l.143.238c2.616,4.356,3.894,6.484,4.356,8.989a3.048,3.048,0,0,0-.524,4.7,3.051,3.051,0,0,0,2.177,5.191h1.28a5.75,5.75,0,0,0,11.076,0h1.28a3.051,3.051,0,0,0,2.177-5.191,3.048,3.048,0,0,0-.524-4.7,13.866,13.866,0,0,1,1.444-3.942A.916.916,0,0,0,138.719,167.375Zm-9.52,17.439a3.932,3.932,0,0,1-3.6-2.372h7.2A3.932,3.932,0,0,1,129.2,184.814Zm4.272-6.647h2.546a1.222,1.222,0,0,1,0,2.444H122.381a1.222,1.222,0,0,1,0-2.444h7.471a.916.916,0,0,0,0-1.831h-7.471a1.222,1.222,0,0,1-.351-2.392,1.21,1.21,0,0,1,.144-.033l.044-.007a1.251,1.251,0,0,1,.163-.012h13.637a1.232,1.232,0,0,1,.163.012l.044.007a1.193,1.193,0,0,1,.143.033,1.222,1.222,0,0,1-.35,2.392h-2.546a.916.916,0,1,0,0,1.831Z" transform="translate(-113.187 -145.56)" fill="#d7df23"/>
          </g>
        </g>
      </g>
      <path id="Path_1264" data-name="Path 1264" d="M10488.5,4363.75l8.611,5.148-7.176,6.317,5.92,4.68" transform="translate(-10469.069 -4344.555)" fill="none" stroke="#d7df23" stroke-width="3"/>
    </g>
  </g>
</svg>
