<svg xmlns="http://www.w3.org/2000/svg" width="77" height="67.972" viewBox="0 0 77 67.972">
  <g id="success-achievement-award-medal-winner-svgrepo-com" transform="translate(-3.503 -6.886)">
    <path id="Path_1225" data-name="Path 1225" d="M55.285,74.858a9.632,9.632,0,0,1-5.682-1.88L43.759,68.7a4.221,4.221,0,0,0-5.005,0L32.91,72.977a9.659,9.659,0,0,1-15.3-8.834l.785-7.2a4.207,4.207,0,0,0-2.5-4.329L9.276,49.7a9.646,9.646,0,0,1,0-17.668L15.891,29.1a4.207,4.207,0,0,0,2.5-4.329l-.785-7.2a9.659,9.659,0,0,1,15.3-8.834l5.844,4.275a4.221,4.221,0,0,0,5.005,0L49.6,8.745a9.47,9.47,0,0,1,7.332-1.7,9.808,9.808,0,0,1,6.426,4.234,2.705,2.705,0,1,1-4.519,2.976,4.37,4.37,0,0,0-2.868-1.881,4.059,4.059,0,0,0-3.206.771l-5.844,4.275a9.646,9.646,0,0,1-11.4,0L29.69,13.141a4.234,4.234,0,0,0-6.764,3.883l.785,7.184A9.619,9.619,0,0,1,18.083,34.1l-6.629,2.922a4.248,4.248,0,0,0,0,7.765l6.629,2.841a9.619,9.619,0,0,1,5.7,9.876l-.785,7.184a4.234,4.234,0,0,0,6.764,3.883l5.831-4.275a9.646,9.646,0,0,1,11.4,0l5.844,4.275A4.234,4.234,0,0,0,59.6,64.684L58.816,57.5a9.605,9.605,0,0,1,5.614-9.876L71.059,44.7a4.248,4.248,0,0,0,0-7.765l-3.6-1.488A2.706,2.706,0,1,1,69.639,30.5l3.6,1.583a9.646,9.646,0,0,1,0,17.668l-6.615,2.922A4.234,4.234,0,0,0,64.106,57l.785,7.2a9.47,9.47,0,0,1-4.762,9.4,9.7,9.7,0,0,1-4.843,1.258Z" transform="translate(0 0)" fill="#285460"/>
    <path id="Path_1226" data-name="Path 1226" d="M35.434,49.866a2.706,2.706,0,0,1-1.921-.8L21.865,37.42a2.706,2.706,0,1,1,3.829-3.788l9.74,9.74L69.85,8.9a2.706,2.706,0,0,1,3.815,3.829L37.341,49.054A2.706,2.706,0,0,1,35.434,49.866Z" transform="translate(6.134 0.465)" fill="#d7df23"/>
  </g>
</svg>
