<svg xmlns="http://www.w3.org/2000/svg" width="50.873" height="60" viewBox="0 0 50.873 60">
  <g id="secure-data-lock-svgrepo-com" transform="translate(-38.941)">
    <g id="Group_6726" data-name="Group 6726" transform="translate(38.941)">
      <g id="Group_6725" data-name="Group 6725">
        <path id="Path_1218" data-name="Path 1218" d="M202.605,87.824h.03a1.262,1.262,0,1,0,0-2.524h-.03a1.262,1.262,0,1,0,0,2.524Z" transform="translate(-182.312 -75.304)" fill="#d7df23"/>
        <path id="Path_1219" data-name="Path 1219" d="M192.8,447.815h-.03a1.262,1.262,0,1,0,0,2.524h.03a1.262,1.262,0,1,0,0-2.524Z" transform="translate(-173.631 -395.337)" fill="#d7df23"/>
        <path id="Path_1220" data-name="Path 1220" d="M92.141,447.811H82.849a1.262,1.262,0,0,0,0,2.524h9.292a1.262,1.262,0,0,0,0-2.524Z" transform="translate(-76.589 -395.333)" fill="#d7df23"/>
        <path id="Path_1221" data-name="Path 1221" d="M88.552,0H45.2a1.262,1.262,0,0,0-1.262,1.262V5H40.2A1.262,1.262,0,0,0,38.941,6.26V58.738A1.262,1.262,0,0,0,40.2,60H83.554a1.262,1.262,0,0,0,1.262-1.262V55h3.736a1.262,1.262,0,0,0,1.262-1.262V1.262A1.262,1.262,0,0,0,88.552,0Zm-6.26,57.476H41.465V7.522H70.884V10h-8.03a1.262,1.262,0,1,0,0,2.524h8.03v5.148a1.262,1.262,0,0,0,1.262,1.262H82.292ZM73.408,16.406v-7.1l3.549,3.549,3.55,3.55ZM87.29,52.478H84.816V17.719c0-.017,0-.033,0-.05a1.26,1.26,0,0,0-.418-.939L73.038,5.368a1.256,1.256,0,0,0-.127-.11l-.034-.025a1.29,1.29,0,0,0-.139-.087l-.009,0a1.27,1.27,0,0,0-.141-.062l-.04-.014a1.27,1.27,0,0,0-.156-.043h-.006A1.244,1.244,0,0,0,72.232,5l-.045,0-.041,0H46.463V2.524H87.29V52.478Z" transform="translate(-38.941)" fill="#d7df23"/>
        <path id="Path_1222" data-name="Path 1222" d="M165.773,194.821a37.239,37.239,0,0,1-8.834-3.747,1.262,1.262,0,0,0-1.283,0,35.708,35.708,0,0,1-8.834,3.747,1.262,1.262,0,0,0-.928,1.217v4.847a14.718,14.718,0,0,0,4.471,10.751c2.137,2.094,4.744,3.39,5.933,3.39s3.8-1.3,5.933-3.39a14.717,14.717,0,0,0,4.471-10.751v-4.847A1.263,1.263,0,0,0,165.773,194.821ZM156.3,212.5a12.224,12.224,0,0,1-7.88-11.612v-3.9a38.057,38.057,0,0,0,7.881-3.371,39.456,39.456,0,0,0,7.879,3.369v3.9h0A12.224,12.224,0,0,1,156.3,212.5Z" transform="translate(-133.36 -168.527)" fill="#d7df23"/>
        <path id="Path_1223" data-name="Path 1223" d="M197.388,259.982l-4.607,4.607-1.839-1.839a1.262,1.262,0,0,0-1.785,1.785l2.731,2.731a1.262,1.262,0,0,0,1.785,0l5.5-5.5a1.262,1.262,0,0,0-1.785-1.785Z" transform="translate(-171.227 -229.189)" fill="#d7df23"/>
      </g>
    </g>
  </g>
</svg>
