<svg xmlns="http://www.w3.org/2000/svg" width="40.918" height="37" viewBox="0 0 40.918 37">
  <g id="software-svgrepo-com" transform="translate(0 -22.5)">
    <path id="Path_1168" data-name="Path 1168" d="M40.265,22.5H.653A.653.653,0,0,0,0,23.153V58.847a.653.653,0,0,0,.653.653H40.265a.653.653,0,0,0,.653-.653V23.153A.653.653,0,0,0,40.265,22.5Zm-.653,35.694H1.306V23.806H25.465v3.918H3.265a.653.653,0,1,0,0,1.306H37.653a.653.653,0,0,0,0-1.306H26.771V23.806H39.612Z" fill="#d7df23"/>
    <circle id="Ellipse_9" data-name="Ellipse 9" cx="1" cy="1" r="1" transform="translate(32 24.5)" fill="#d7df23"/>
    <ellipse id="Ellipse_10" data-name="Ellipse 10" cx="0.5" cy="1" rx="0.5" ry="1" transform="translate(29 24.5)" fill="#d7df23"/>
    <circle id="Ellipse_11" data-name="Ellipse 11" cx="1" cy="1" r="1" transform="translate(36 24.5)" fill="#d7df23"/>
    <path id="Path_1169" data-name="Path 1169" d="M184.261,206.676a4.838,4.838,0,1,0,2.214,9.14.653.653,0,0,0-.6-1.161,3.492,3.492,0,0,1-1.616.392,3.533,3.533,0,1,1,3.533-3.533,3.493,3.493,0,0,1-.392,1.616.653.653,0,1,0,1.161.6,4.838,4.838,0,0,0-4.3-7.053Z" transform="translate(-163.803 -168.142)" fill="#d7df23"/>
    <path id="Path_1170" data-name="Path 1170" d="M126.5,140.64h-2.746a8.257,8.257,0,0,0-.643-1.547l1.943-1.943a.653.653,0,0,0,0-.924l-2.462-2.462a.653.653,0,0,0-.923,0l-1.943,1.944a8.261,8.261,0,0,0-1.547-.643v-2.746a.653.653,0,0,0-.653-.653h-3.482a.653.653,0,0,0-.653.653v2.746a8.257,8.257,0,0,0-1.547.643l-1.943-1.944a.653.653,0,0,0-.923,0l-2.462,2.462a.653.653,0,0,0,0,.924l1.944,1.943a8.261,8.261,0,0,0-.643,1.547h-2.746a.653.653,0,0,0-.653.653v3.482a.653.653,0,0,0,.653.653h2.746a8.25,8.25,0,0,0,.643,1.547l-1.943,1.943a.653.653,0,0,0,0,.924l2.462,2.462a.653.653,0,0,0,.923,0l1.943-1.943a8.262,8.262,0,0,0,1.547.643v2.746a.653.653,0,0,0,.653.653h3.482a.653.653,0,0,0,.653-.653V151a8.258,8.258,0,0,0,1.547-.643l1.943,1.943a.653.653,0,0,0,.923,0l2.462-2.462a.653.653,0,0,0,0-.924l-1.943-1.943a8.258,8.258,0,0,0,.643-1.547H126.5a.653.653,0,0,0,.653-.653v-3.482A.653.653,0,0,0,126.5,140.64Zm-.653,3.482H123.25a.653.653,0,0,0-.636.5,6.96,6.96,0,0,1-.877,2.109.653.653,0,0,0,.092.807l1.837,1.837-1.539,1.539-1.837-1.837a.653.653,0,0,0-.807-.092,6.96,6.96,0,0,1-2.109.877.653.653,0,0,0-.5.636V153.1h-2.176V150.5a.653.653,0,0,0-.5-.636,6.961,6.961,0,0,1-2.109-.877.653.653,0,0,0-.807.092l-1.837,1.837L107.9,149.38l1.837-1.837a.653.653,0,0,0,.092-.807,6.959,6.959,0,0,1-.876-2.109.653.653,0,0,0-.636-.5h-2.595v-2.176h2.595a.653.653,0,0,0,.636-.5,6.961,6.961,0,0,1,.877-2.109.653.653,0,0,0-.092-.807l-1.837-1.837,1.539-1.539,1.837,1.837a.653.653,0,0,0,.807.092,6.959,6.959,0,0,1,2.109-.877.653.653,0,0,0,.5-.636v-2.595h2.176v2.595a.653.653,0,0,0,.5.636,6.961,6.961,0,0,1,2.109.877.653.653,0,0,0,.807-.092l1.837-1.837,1.539,1.539-1.837,1.837a.653.653,0,0,0-.092.807,6.959,6.959,0,0,1,.877,2.109.653.653,0,0,0,.636.5h2.595Z" transform="translate(-95.323 -99.661)" fill="#d7df23"/>
  </g>
</svg>
