<svg xmlns="http://www.w3.org/2000/svg" xmlns:xlink="http://www.w3.org/1999/xlink" width="178.999" height="132.999" viewBox="0 0 178.999 132.999">
  <defs>
    <filter id="Path_59" x="0" y="1.698" width="160.298" height="119.467" filterUnits="userSpaceOnUse">
      <feOffset dx="12" dy="24" input="SourceAlpha"/>
      <feGaussianBlur stdDeviation="7" result="blur"/>
      <feFlood flood-opacity="0.161"/>
      <feComposite operator="in" in2="blur"/>
      <feComposite in="SourceGraphic"/>
    </filter>
    <filter id="Path_61" x="67.133" y="21.827" width="111.866" height="111.172" filterUnits="userSpaceOnUse">
      <feOffset dx="8" dy="20" input="SourceAlpha"/>
      <feGaussianBlur stdDeviation="9.5" result="blur-2"/>
      <feFlood flood-opacity="0.278"/>
      <feComposite operator="in" in2="blur-2"/>
      <feComposite in="SourceGraphic"/>
    </filter>
  </defs>
  <g id="Group_6734" data-name="Group 6734" transform="translate(1427 -1810)">
    <g transform="matrix(1, 0, 0, 1, -1427, 1810)" filter="url(#Path_59)">
      <path id="Path_59-2" data-name="Path 59" d="M-1404.641,1822h111.82l2.64,4.581.48,58.963v10.923h-110.86l-7.2-3.641-.24-65.54Z" transform="translate(1417 -1820.3)" fill="#fff"/>
    </g>
    <g id="executed-payment-svgrepo-com" transform="translate(-1418 1810)">
      <path id="Path_39" data-name="Path 39" d="M109.154,28H9.144A9.155,9.155,0,0,0,0,37.144V96.409a9.155,9.155,0,0,0,9.144,9.144H60.191c.959,0,3.473-1.125,3.473-2.084s-2.514.579-3.473.579H9.144c-3.127,0-7.408-3.7-7.408-6.829V37.144c0-3.127,3.47-7.408,6.6-7.408l102.44-.116c3.127,0,6.019,4.4,6.019,7.524l-.232,59.265c0,.959-.959,1.736,0,1.736a1.736,1.736,0,0,0,1.736-1.736V37.144A9.155,9.155,0,0,0,109.154,28Z" transform="translate(0 -28)" fill="#285460"/>
    </g>
    <g id="Group_6649" data-name="Group 6649" transform="translate(-1341.682 1838.243)">
      <g id="Group_6648" data-name="Group 6648">
        <g transform="matrix(1, 0, 0, 1, -85.32, -28.24)" filter="url(#Path_61)">
          <g id="Path_61-2" data-name="Path 61" transform="translate(87.63 30.33)" fill="#fff">
            <path d="M 27.43320846557617 53.67191314697266 C 23.79624938964844 53.67191314697266 20.26838874816895 52.96875381469727 16.9476490020752 51.58198547363281 C 13.74033832550049 50.24257278442383 10.85988807678223 48.32510375976562 8.386298179626465 45.88281631469727 C 5.913138389587402 43.44097518920898 3.971548557281494 40.59775543212891 2.615438461303711 37.43213653564453 C 1.211738467216492 34.15542602539062 0.4999984800815582 30.67446517944336 0.4999984800815582 27.0859546661377 C 0.4999984800815582 23.49744415283203 1.211738467216492 20.0164852142334 2.615438461303711 16.73976516723633 C 3.971548557281494 13.5741548538208 5.913138389587402 10.73093509674072 8.386298179626465 8.289094924926758 C 10.85988807678223 5.846814632415771 13.74033832550049 3.92933464050293 16.9476490020752 2.589934587478638 C 20.26838874816895 1.203154683113098 23.79623794555664 0.5000046491622925 27.43320846557617 0.5000046491622925 C 31.0701789855957 0.5000046491622925 34.59803009033203 1.203154683113098 37.91877746582031 2.589934587478638 C 41.12607955932617 3.92933464050293 44.00652694702148 5.846814632415771 46.48012924194336 8.289094924926758 C 48.95327758789062 10.73093509674072 50.89486694335938 13.5741548538208 52.2509765625 16.73976516723633 C 53.65467834472656 20.0164852142334 54.36641693115234 23.49744415283203 54.36641693115234 27.0859546661377 C 54.36641693115234 30.67446517944336 53.65467834472656 34.15542602539062 52.2509765625 37.43213653564453 C 50.89486694335938 40.59775543212891 48.95327758789062 43.44097518920898 46.48012924194336 45.88281631469727 C 44.00652694702148 48.32510375976562 41.12607955932617 50.24257278442383 37.91877746582031 51.58198547363281 C 34.59803009033203 52.96875381469727 31.0701789855957 53.67191314697266 27.43320846557617 53.67191314697266 Z" stroke="none"/>
            <path d="M 27.43320846557617 0.9999961853027344 C 23.86273765563965 0.9999961853027344 20.39970779418945 1.690155029296875 17.14032745361328 3.051315307617188 C 13.99244689941406 4.365894317626953 11.16535949707031 6.247844696044922 8.737586975097656 8.644886016845703 C 6.310707092285156 11.04105377197266 4.405548095703125 13.83080291748047 3.075038909912109 16.93665313720703 C 1.698146820068359 20.15080642700195 1 23.56551551818848 1 27.0859546661377 C 1 30.60638427734375 1.698146820068359 34.02110290527344 3.075038909912109 37.23524475097656 C 4.405548095703125 40.34109497070312 6.310707092285156 43.13084411621094 8.737586975097656 45.52701568603516 C 11.16535949707031 47.92405319213867 13.99244689941406 49.80600357055664 17.14032745361328 51.12058639526367 C 20.39970779418945 52.48174285888672 23.86273765563965 53.17190551757812 27.43320846557617 53.17190551757812 C 31.0036792755127 53.17190551757812 34.46670913696289 52.48174285888672 37.72609710693359 51.12058639526367 C 40.87397766113281 49.80600357055664 43.70106887817383 47.92405319213867 46.12882995605469 45.52701568603516 C 48.55571746826172 43.13084411621094 50.46086883544922 40.34109497070312 51.79137802124023 37.23525238037109 C 53.16827011108398 34.02110290527344 53.86641693115234 30.60638427734375 53.86641693115234 27.0859546661377 C 53.86641693115234 23.56551551818848 53.16827011108398 20.15080642700195 51.79137802124023 16.93665313720703 C 50.46086883544922 13.83080291748047 48.55571746826172 11.04105377197266 46.12882995605469 8.644886016845703 C 43.70106887817383 6.247844696044922 40.87397766113281 4.365894317626953 37.72609710693359 3.051315307617188 C 34.46670913696289 1.690155029296875 31.0036792755127 0.9999961853027344 27.43320846557617 0.9999961853027344 M 27.43320846557617 -3.814697265625e-06 C 42.58415985107422 -3.814697265625e-06 54.86641693115234 12.12679290771484 54.86641693115234 27.0859546661377 C 54.86641693115234 42.04510498046875 42.58415985107422 54.17190551757812 27.43320846557617 54.17190551757812 C 12.28226852416992 54.17190551757812 0 42.04510498046875 0 27.0859546661377 C 0 12.12679290771484 12.28226852416992 -3.814697265625e-06 27.43320846557617 -3.814697265625e-06 Z" stroke="none" fill="#707070"/>
          </g>
        </g>
        <g id="Group_6647" data-name="Group 6647">
          <path id="Path_51" data-name="Path 51" d="M253.517,228a29.517,29.517,0,1,0,29.517,29.517A29.55,29.55,0,0,0,253.517,228Zm0,55.561a26.044,26.044,0,1,1,26.044-26.044A26.074,26.074,0,0,1,253.517,283.561Z" transform="translate(-224 -228)" fill="#285460"/>
        </g>
      </g>
      <path id="Path_60" data-name="Path 60" d="M305.845,308.509l-21,21-9.885-9.885a1.736,1.736,0,0,0-2.455,2.455l11.112,11.112a1.736,1.736,0,0,0,2.455,0L308.3,310.964a1.736,1.736,0,0,0-2.455-2.455Z" transform="translate(-259.962 -289.711)" fill="#54a958"/>
    </g>
    <g id="dollar-svgrepo-com_1_" data-name="dollar-svgrepo-com (1)" transform="translate(-1408.277 1819.618)">
      <path id="Path_53" data-name="Path 53" d="M24.147,40.295A16.147,16.147,0,1,1,40.295,24.147,16.165,16.165,0,0,1,24.147,40.295Z" transform="translate(-7.479 -7.479)" fill="#fff"/>
      <path id="Path_54" data-name="Path 54" d="M16.668,1.042A15.627,15.627,0,1,1,1.042,16.668,15.644,15.644,0,0,1,16.668,1.042m0-1.042A16.668,16.668,0,1,0,33.337,16.668,16.668,16.668,0,0,0,16.668,0Z" fill="#54a958"/>
      <path id="Path_55" data-name="Path 55" d="M57.9,71.7A13.8,13.8,0,1,1,71.7,57.9,13.812,13.812,0,0,1,57.9,71.7Z" transform="translate(-41.232 -41.232)" fill="#fff"/>
      <path id="Path_56" data-name="Path 56" d="M54.161,40.625A13.536,13.536,0,1,1,40.625,54.161,13.552,13.552,0,0,1,54.161,40.625m0-.521A14.057,14.057,0,1,0,68.218,54.161,14.057,14.057,0,0,0,54.161,40.1Z" transform="translate(-37.493 -37.493)" fill="#e2e2e2"/>
      <path id="Path_57" data-name="Path 57" d="M177.378,125.332v-2.276a9.788,9.788,0,0,1-4.106-1.031L174,119.22a8.586,8.586,0,0,0,4.01,1.054c1.377,0,2.318-.527,2.318-1.486,0-.912-.773-1.488-2.561-2.087-2.584-.863-4.348-2.062-4.348-4.387,0-2.111,1.5-3.764,4.083-4.268v-2.278h2.366v2.111a8.742,8.742,0,0,1,3.5.791l-.7,2.71a8.053,8.053,0,0,0-3.479-.816c-1.569,0-2.077.671-2.077,1.343,0,.791.845,1.294,2.9,2.062,2.873,1.007,4.033,2.325,4.033,4.485,0,2.134-1.522,3.956-4.3,4.436v2.445h-2.367Z" transform="translate(-161.99 -98.881)" fill="#54a958"/>
    </g>
    <text id="Escrow" transform="translate(-1351.467 1828.72)" fill="#54a958" font-size="7" font-family="NexaBold, Nexa" letter-spacing="0.162em"><tspan x="0" y="0">Escrow</tspan></text>
    <path id="Path_62" data-name="Path 62" d="M77.015,220.852h26.926c1.907,0,3.452-.759,3.452-1.695s-1.545-1.7-3.452-1.7H77.015c-1.907,0-3.452.759-3.452,1.7S75.109,220.852,77.015,220.852Z" transform="translate(-1479.587 1653.904)" fill="#54a958"/>
  </g>
</svg>
