<svg xmlns="http://www.w3.org/2000/svg" width="64" height="64" viewBox="0 0 64 64">
  <g id="Rocket_1_" transform="translate(0 0)">
    <path id="Path_1213" data-name="Path 1213" d="M64,8.9a8.876,8.876,0,0,0-2.359-6.55c-6.284-6.261-22.807.4-37.621,15.161a20.959,20.959,0,0,0-1.5,1.695,3.468,3.468,0,0,0-.539-.169c-4.267-1-17.96,1.329-21.946,17.255a1,1,0,0,0,1.557,1.053c5.411-3.925,9.751-5.5,13.54-4.922-.261.474-.527.937-.8,1.378a1,1,0,0,0,.144,1.235L16.039,36.6,13.1,39.525a1,1,0,0,0,0,1.416l9.829,9.8a1,1,0,0,0,1.412,0l2.941-2.932,1.573,1.568a1,1,0,0,0,1.231.144q.62-.382,1.284-.746c.651,3.808-.926,8.176-4.914,13.638A1,1,0,0,0,27.266,64a1.02,1.02,0,0,0,.241-.029C43.447,60.007,45.8,46.361,44.82,42.105a3.142,3.142,0,0,0-.224-.646,21.159,21.159,0,0,0,1.833-1.6C57.1,29.219,64,17.066,64,8.9ZM16.058,30.549c-3.9-.822-8.189.321-13.279,3.563A19.413,19.413,0,0,1,13.421,22.335a17.394,17.394,0,0,1,6.687-1.482,8.372,8.372,0,0,1,1.054.06Zm7.579,18.069-8.412-8.385,2.231-2.222,7.267,7.242,1.145,1.14Zm17.9,1.955c-1.547,3.583-4.842,8.148-11.837,10.651,3.246-5.069,4.394-9.339,3.57-13.229l9.674-5.09A15.9,15.9,0,0,1,41.533,50.573Zm-6.844-5.708c-1.759.847-3.434,1.651-4.971,2.544L16.437,34.172c.717-1.228,1.38-2.562,2.052-3.94l4.061-7.667a21.788,21.788,0,0,1,2.882-3.638C38.984,5.419,54.917-1.524,60.229,3.765A6.97,6.97,0,0,1,62,8.9c0,7.545-6.825,19.417-16.982,29.541C42.188,41.259,38.376,43.092,34.689,44.865Z" fill="#d7df23"/>
    <path id="Path_1214" data-name="Path 1214" d="M42.725,12.853a5.99,5.99,0,0,0,0,8.5,6.051,6.051,0,0,0,8.521,0,5.992,5.992,0,0,0,0-8.5A6.052,6.052,0,0,0,42.725,12.853Zm7.11,7.079a4.048,4.048,0,0,1-5.7,0,3.99,3.99,0,0,1,0-5.661,4.05,4.05,0,0,1,5.7,0,3.993,3.993,0,0,1,0,5.661Z" fill="#d7df23"/>
    <path id="Path_1215" data-name="Path 1215" d="M16.465,47.147a1,1,0,0,0-1.414,0l-10,9.962a1,1,0,1,0,1.412,1.416l10-9.962A1,1,0,0,0,16.465,47.147Z" fill="#d7df23"/>
    <path id="Path_1216" data-name="Path 1216" d="M5.725,51.973a1,1,0,0,0,.706-.292l6.582-6.561A1,1,0,0,0,11.6,43.7L5.018,50.265a1,1,0,0,0,.706,1.708Z" fill="#d7df23"/>
    <path id="Path_1217" data-name="Path 1217" d="M18.5,50.584,11.92,57.144a1,1,0,1,0,1.412,1.416L19.914,52A1,1,0,0,0,18.5,50.584Z" fill="#d7df23"/>
  </g>
</svg>
