<svg xmlns="http://www.w3.org/2000/svg" width="47.013" height="48.494" viewBox="0 0 47.013 48.494">
  <g id="application-development-svgrepo-com" transform="translate(-6.685)">
    <path id="Path_1171" data-name="Path 1171" d="M104.135,24.481h4.382a.61.61,0,1,0,0-1.219h-4.382a.61.61,0,1,0,0,1.219Z" transform="translate(-86.108 -20.684)" fill="#d7df23"/>
    <path id="Path_1172" data-name="Path 1172" d="M112.856,383.771a1.987,1.987,0,1,0,1.987,1.987A1.989,1.989,0,0,0,112.856,383.771Zm0,2.754a.768.768,0,1,1,.768-.768A.768.768,0,0,1,112.856,386.525Z" transform="translate(-92.638 -341.241)" fill="#d7df23"/>
    <path id="Path_1176" data-name="Path 1176" d="M53.088,24.217a.609.609,0,0,0,.61-.61V7.989a.609.609,0,0,0-.61-.61H33.75V2.539A2.542,2.542,0,0,0,31.211,0H9.224A2.542,2.542,0,0,0,6.685,2.539V45.955a2.542,2.542,0,0,0,2.539,2.539H31.211a2.542,2.542,0,0,0,2.539-2.539V36.887H53.088a.609.609,0,0,0,.61-.61v-9.2a.609.609,0,0,0-.61-.61H33.75V24.217H53.088ZM52.479,23H25.82V8.6H52.479ZM25.21,26.464a.609.609,0,0,0-.61.61v3.315H10.748V20.314H25.21c-.645.081.13.336,0,1.149.1.318-.229.438,0,.739.361.475-.19.521,0,.8.615.9.363.653.61.61,1.816.9,1.177.61,3.867.61v2.247H25.21Zm0,10.423h4.477v1.027H10.748V33.8H24.6v2.483A.61.61,0,0,0,25.21,36.887Zm-.61-19.92H10.748V9.407H24.6ZM9.224,1.219H31.211a1.321,1.321,0,0,1,1.32,1.32V5.76H7.9V2.539A1.321,1.321,0,0,1,9.224,1.219ZM31.211,47.275H9.224a1.321,1.321,0,0,1-1.32-1.32V41.733H32.531v4.222A1.321,1.321,0,0,1,31.211,47.275Zm1.32-6.761H7.9V6.979H32.531v.4H25.21a.609.609,0,0,0-.61.61v.2H10.138a.609.609,0,0,0-.61.61v8.779a.609.609,0,0,0,.61.61H24.6v.909H10.138a.609.609,0,0,0-.61.61V31a.609.609,0,0,0,.61.61H24.6v.969H10.138a.609.609,0,0,0-.61.61v5.338a.609.609,0,0,0,.61.61H30.3a.609.609,0,0,0,.61-.61V36.887h1.625Zm19.948-4.846H25.82V27.683H52.479Zm-19.948-9.2H30.906V24.217h1.625Z" fill="#d7df23"/>
    <path id="Path_1177" data-name="Path 1177" d="M199.427,102.305h21.125a.61.61,0,1,0,0-1.219H199.427a.61.61,0,1,0,0,1.219Z" transform="translate(-170.84 -89.883)" fill="#d7df23"/>
    <path id="Path_1178" data-name="Path 1178" d="M199.427,130.429h10.649a.61.61,0,1,0,0-1.219H199.427a.61.61,0,1,0,0,1.219Z" transform="translate(-170.84 -114.891)" fill="#d7df23"/>
    <path id="Path_1179" data-name="Path 1179" d="M199.427,265.685h21.125a.61.61,0,1,0,0-1.219H199.427a.61.61,0,1,0,0,1.219Z" transform="translate(-170.84 -235.157)" fill="#d7df23"/>
    <path id="Path_1180" data-name="Path 1180" d="M199.427,293.809h10.649a.61.61,0,1,0,0-1.219H199.427a.61.61,0,1,0,0,1.219Z" transform="translate(-170.84 -260.165)" fill="#d7df23"/>
    <path id="Path_1181" data-name="Path 1181" d="M199.427,158.553h15.151a.61.61,0,0,0,0-1.219H199.427a.61.61,0,0,0,0,1.219Z" transform="translate(-170.84 -139.898)" fill="#d7df23"/>
  </g>
</svg>
