<svg id="browser-global-svgrepo-com" xmlns="http://www.w3.org/2000/svg" width="42.333" height="42.333" viewBox="0 0 42.333 42.333">
  <g id="Group_6695" data-name="Group 6695" transform="translate(7.056 10.583)">
    <g id="Group_6694" data-name="Group 6694">
      <path id="Path_1182" data-name="Path 1182" d="M106.1,127.114a14.085,14.085,0,1,0,4.044,9.877A13.976,13.976,0,0,0,106.1,127.114Zm-14.773-1.541a13.291,13.291,0,0,0-1.842,3.352,12.313,12.313,0,0,1-1.593-1.194A12.227,12.227,0,0,1,91.326,125.573Zm-4.672,3.414a14.073,14.073,0,0,0,2.268,1.66,23.451,23.451,0,0,0-.8,5.463H83.726A12.2,12.2,0,0,1,86.654,128.986Zm-2.927,8.887h4.391a23.451,23.451,0,0,0,.8,5.463A14.078,14.078,0,0,0,86.654,145,12.2,12.2,0,0,1,83.726,137.873Zm4.165,8.378a12.314,12.314,0,0,1,1.593-1.193,13.294,13.294,0,0,0,1.842,3.351A12.231,12.231,0,0,1,87.891,146.251Zm7.258,2.94c-1.654-.5-3.115-2.36-4.081-4.982a12.223,12.223,0,0,1,4.081-1Zm0-7.747a14,14,0,0,0-4.611,1.063,21.958,21.958,0,0,1-.658-4.634h5.268v3.571Zm0-5.335H89.881a21.96,21.96,0,0,1,.658-4.634,14,14,0,0,0,4.611,1.063v3.571Zm0-5.335a12.223,12.223,0,0,1-4.081-1c.966-2.622,2.427-4.484,4.081-4.982Zm13.187,5.335h-4.391a23.454,23.454,0,0,0-.8-5.462,14.07,14.07,0,0,0,2.269-1.66A12.2,12.2,0,0,1,108.336,136.109Zm-4.164-8.378a12.32,12.32,0,0,1-1.593,1.194,13.3,13.3,0,0,0-1.842-3.352A12.238,12.238,0,0,1,104.172,127.731Zm-7.259-2.94c1.654.5,3.115,2.36,4.081,4.982a12.224,12.224,0,0,1-4.081,1Zm0,7.747a14,14,0,0,0,4.611-1.063,21.958,21.958,0,0,1,.658,4.634H96.913Zm0,5.335h5.268a21.96,21.96,0,0,1-.658,4.634,14,14,0,0,0-4.611-1.063v-3.571Zm0,11.318v-5.983a12.227,12.227,0,0,1,4.081,1C100.028,146.831,98.567,148.692,96.913,149.191Zm3.823-.781a13.3,13.3,0,0,0,1.842-3.352,12.309,12.309,0,0,1,1.593,1.194A12.225,12.225,0,0,1,100.736,148.409ZM105.409,145a14.079,14.079,0,0,0-2.269-1.66,23.445,23.445,0,0,0,.8-5.462h4.391A12.2,12.2,0,0,1,105.409,145Z" transform="translate(-81.92 -122.88)" fill="#d7df23"/>
    </g>
  </g>
  <g id="Group_6697" data-name="Group 6697">
    <g id="Group_6696" data-name="Group 6696">
      <path id="Path_1183" data-name="Path 1183" d="M0,0V42.333H42.333V0ZM40.569,40.569H1.764V8.819H40.569Zm0-33.514H1.764V1.764H40.569Z" fill="#d7df23"/>
    </g>
  </g>
  <g id="Group_6699" data-name="Group 6699" transform="translate(37.042 3.528)">
    <g id="Group_6698" data-name="Group 6698">
      <rect id="Rectangle_989" data-name="Rectangle 989" width="1.764" height="1.764" fill="#d7df23"/>
    </g>
  </g>
  <g id="Group_6701" data-name="Group 6701" transform="translate(33.514 3.528)">
    <g id="Group_6700" data-name="Group 6700">
      <rect id="Rectangle_990" data-name="Rectangle 990" width="1.764" height="1.764" fill="#d7df23"/>
    </g>
  </g>
  <g id="Group_6703" data-name="Group 6703" transform="translate(29.986 3.528)">
    <g id="Group_6702" data-name="Group 6702">
      <rect id="Rectangle_991" data-name="Rectangle 991" width="1.764" height="1.764" fill="#d7df23"/>
    </g>
  </g>
  <g id="Group_6705" data-name="Group 6705" transform="translate(4.41 3.528)">
    <g id="Group_6704" data-name="Group 6704">
      <rect id="Rectangle_992" data-name="Rectangle 992" width="21.167" height="1.764" fill="#d7df23"/>
    </g>
  </g>
</svg>
