<svg xmlns="http://www.w3.org/2000/svg" width="130.234" height="132.693" viewBox="0 0 130.234 132.693">
  <g id="Group_6746" data-name="Group 6746" transform="translate(899.87 -1855.888)">
    <path id="star-svgrepo-com_1_" data-name="star-svgrepo-com (1)" d="M11.722,5.573a.21.21,0,0,0-.17-.143l-3.8-.552-1.7-3.442a.21.21,0,0,0-.376,0l-1.7,3.443L.18,5.43a.21.21,0,0,0-.117.358l2.749,2.68-.649,3.784a.21.21,0,0,0,.083.205.208.208,0,0,0,.221.016l3.4-1.786,3.4,1.786a.21.21,0,0,0,.3-.221L8.92,8.468l2.749-2.68A.21.21,0,0,0,11.722,5.573Z" transform="translate(-807.515 1858.774)" fill="#fff" stroke="#285460" stroke-width="1"/>
    <path id="star-svgrepo-com_1_2" data-name="star-svgrepo-com (1)" d="M9.378,4.722a.168.168,0,0,0-.136-.114L6.2,4.166,4.844,1.412a.168.168,0,0,0-.3,0L3.183,4.166.144,4.608a.168.168,0,0,0-.093.286l2.2,2.144-.519,3.027a.168.168,0,0,0,.067.164.167.167,0,0,0,.177.013L4.693,8.813l2.718,1.429a.168.168,0,0,0,.244-.177L7.136,7.038l2.2-2.144A.168.168,0,0,0,9.378,4.722Z" transform="translate(-838.259 1865.482)" fill="#fff" stroke="#285460" stroke-width="0.5"/>
    <g id="Group_6744" data-name="Group 6744" transform="translate(-822.048 1856.405)">
      <path id="Path_65" data-name="Path 65" d="M-1152,1035.4h3.689" transform="translate(1152 -1033.557)" fill="none" stroke="#285460" stroke-linecap="round" stroke-width="1"/>
      <path id="Path_66" data-name="Path 66" d="M0,0H3.689" transform="matrix(0.035, 0.999, -0.999, 0.035, 1.78, 0)" fill="none" stroke="#285460" stroke-linecap="round" stroke-width="1"/>
    </g>
    <g id="Group_6745" data-name="Group 6745" transform="translate(-785.734 1864.762)">
      <path id="Path_65-2" data-name="Path 65" d="M-1152,1035.4h6.513" transform="translate(1152 -1032.146)" fill="none" stroke="#285460" stroke-linecap="round" stroke-width="1"/>
      <path id="Path_66-2" data-name="Path 66" d="M0,0H6.513" transform="matrix(0.035, 0.999, -0.999, 0.035, 3.143, 0)" fill="none" stroke="#285460" stroke-linecap="round" stroke-width="1"/>
    </g>
    <path id="business-deal-svgrepo-com" d="M129.288,54.071a1.717,1.717,0,0,0-2.428-.131l-3.373,3.028L105.194,38.83a1.719,1.719,0,1,0-2.421,2.441l18.152,18-8.986,8.065L82.052,37.061l29.708-28.1a1.72,1.72,0,0,0-2.364-2.5L78.412,35.77a1.719,1.719,0,0,0-.043,2.457l2.752,2.789-6.064,6.344-11.7-1.246a1.691,1.691,0,0,0-1.393.488l-4.754,4.712-8.837-8.729,2.978-3.016a1.719,1.719,0,0,0-.043-2.457L20.332,7.8a1.72,1.72,0,0,0-2.364,2.5L38.875,30.077,8.257,60.121l-5.39-4.836a1.719,1.719,0,1,0-2.3,2.558L16.713,72.331a1.721,1.721,0,0,0,2.373-.071L22.01,69.3,38.086,85.155l-2.954,3a1.717,1.717,0,0,0,.01,2.421l6.028,6.028s0,0,0,0a0,0,0,0,0,0,0l6.029,5.961,6.021,6.022,6.028,6.028a1.718,1.718,0,0,0,2.431,0l3.119-3.119,3.17,3.127a1.718,1.718,0,0,0,2.422-.009l4.812-4.812.71.71a1.718,1.718,0,0,0,2.431,0l4.812-4.812.71.71a1.718,1.718,0,0,0,2.431,0l4.812-4.812.708.708a1.718,1.718,0,0,0,2.431,0l6.028-6.028a1.717,1.717,0,0,0,0-2.431l-8.95-8.95,16.176-17.163,3.136,3.177a1.721,1.721,0,0,0,2.373.07L129.159,56.5A1.727,1.727,0,0,0,129.288,54.071Zm-86.952.958a7.518,7.518,0,0,1-12.05,6L40.816,50.5A7.52,7.52,0,0,1,42.336,55.029Zm.918-6.968,2.869-2.869,1.551,1.532-3.16,3.236A10.829,10.829,0,0,0,43.254,48.061ZM17.789,68.676l-6.968-6.255,30.554-29.98,6.3,5.962Zm10.059-5.208a10.89,10.89,0,0,0,1.963,1.295c-.545.56-1.107,1.143-1.673,1.728q-1.026,1.06-2,2.054l-1.7-1.673Zm12.686,24.1,3.614,3.564-1.776,1.814-3.593-3.593Zm7.872,11.359-3.591-3.55,1.793-1.817,3.607,3.557Zm4.257.605,3.621,3.571-1.845,1.845-3.6-3.6Zm7.805,11.443-3.6-3.6,1.862-1.862,3.621,3.573Zm32.569-12.31-.708-.708h0l-6.941-6.941a0,0,0,0,1,0,0L83.278,88.9a1.719,1.719,0,0,0-2.431,2.431l7.838,7.836-3.6,3.6-9.762-9.762A1.719,1.719,0,0,0,72.9,95.437l2.113,2.113,5.723,5.725-3.6,3.6-5.644-5.643-2.006-2.006a0,0,0,0,1,0,0l-2.109-2.109a1.719,1.719,0,0,0-2.431,2.431l3.946,3.946,3.891,3.891-3.605,3.605L28.591,70.959c.652-.669,1.327-1.365,2.017-2.079,1.013-1.045,2.01-2.075,2.9-2.976a10.916,10.916,0,0,0,12.27-10.876,10.9,10.9,0,0,0-.089-1.343l4.437-4.546,4.654,4.6L38.547,69.829a1.72,1.72,0,0,0,.141,2.567c.4.321,9.815,7.451,26.161-9.115L96.634,95.068ZM88.9,82.471,66.041,59.612a1.657,1.657,0,0,0-1.243-.5,1.719,1.719,0,0,0-1.226.542c-10.546,11.221-17.61,11.562-20.8,10.826L63.809,49.618l8.247.879-1.238,1.3A1.719,1.719,0,1,0,73.3,54.169l9.882-10.338,21.688,21.688ZM91.9,33.114a5.373,5.373,0,1,0,5.373-5.373A5.379,5.379,0,0,0,91.9,33.114Zm7.307,0a1.934,1.934,0,1,1-1.934-1.934A1.937,1.937,0,0,1,99.211,33.114Z" transform="translate(-899.364 1872.942)" fill="#285460"/>
    <path id="star-svgrepo-com_1_3" data-name="star-svgrepo-com (1)" d="M11.722,5.573a.21.21,0,0,0-.17-.143l-3.8-.552-1.7-3.442a.21.21,0,0,0-.376,0l-1.7,3.443L.18,5.43a.21.21,0,0,0-.117.358l2.749,2.68-.649,3.784a.21.21,0,0,0,.083.205.208.208,0,0,0,.221.016l3.4-1.786,3.4,1.786a.21.21,0,0,0,.3-.221L8.92,8.468l2.749-2.68A.21.21,0,0,0,11.722,5.573Z" transform="translate(-899.364 1945.388)" fill="#fff" stroke="#285460" stroke-width="1"/>
    <path id="star-svgrepo-com_1_4" data-name="star-svgrepo-com (1)" d="M18.756,8.126a.337.337,0,0,0-.271-.229l-6.078-.883L9.687,1.505a.335.335,0,0,0-.6,0L6.367,7.014.288,7.9A.336.336,0,0,0,.1,8.47l4.4,4.287L3.462,18.812a.337.337,0,0,0,.133.329.333.333,0,0,0,.354.026l5.437-2.858,5.437,2.858a.336.336,0,0,0,.488-.354l-1.038-6.054,4.4-4.288A.336.336,0,0,0,18.756,8.126Z" transform="translate(-883.713 1968.865)" fill="#fff" stroke="#285460" stroke-width="1"/>
  </g>
</svg>
