<svg xmlns="http://www.w3.org/2000/svg" width="64.187" height="54" viewBox="0 0 64.187 54">
  <path id="business-deal-svgrepo-com" d="M63.969,29.779a.85.85,0,0,0-1.2-.065l-1.669,1.5-9.051-8.974a.851.851,0,1,0-1.2,1.208l8.981,8.9-4.446,3.99L40.6,21.363,55.3,7.457a.851.851,0,0,0-1.17-1.237L38.8,20.724a.85.85,0,0,0-.021,1.216l1.362,1.38-3,3.139-5.787-.617a.837.837,0,0,0-.689.242l-2.352,2.332L23.937,24.1,25.41,22.6a.85.85,0,0,0-.021-1.216L10.06,6.886A.851.851,0,0,0,8.89,8.122l10.345,9.785L4.086,32.772,1.419,30.379A.851.851,0,1,0,.282,31.645l7.987,7.168a.851.851,0,0,0,1.174-.035l1.447-1.466,7.954,7.845-1.461,1.486a.85.85,0,0,0,.005,1.2l2.982,2.982,0,0,0,0,2.983,2.949,2.979,2.98,2.982,2.982a.85.85,0,0,0,1.2,0L32.064,58.2l1.569,1.547a.85.85,0,0,0,1.2,0l2.381-2.381.351.351a.85.85,0,0,0,1.2,0l2.381-2.381.351.351a.85.85,0,0,0,1.2,0L45.082,53.3l.35.35a.85.85,0,0,0,1.2,0l2.982-2.982a.85.85,0,0,0,0-1.2l-4.428-4.428,8-8.492,1.552,1.572a.851.851,0,0,0,1.174.035l7.987-7.168A.854.854,0,0,0,63.969,29.779Zm-43.022.474a3.72,3.72,0,0,1-5.962,2.97l5.21-5.211A3.721,3.721,0,0,1,20.947,30.253ZM21.4,26.8l1.42-1.42.767.758-1.563,1.6A5.358,5.358,0,0,0,21.4,26.8ZM8.8,37,5.354,33.91,20.471,19.077l3.118,2.95Zm4.977-2.577a5.388,5.388,0,0,0,.971.641c-.27.277-.548.566-.828.855q-.508.524-.988,1.017l-.84-.828Zm6.277,11.923,1.788,1.763-.879.9-1.778-1.778Zm3.9,5.62-1.777-1.757.887-.9,1.785,1.76Zm2.106.3,1.791,1.767-.913.913-1.78-1.78Zm3.862,5.662-1.78-1.78.921-.921L30.852,57Zm16.114-6.091-.35-.35h0l-3.434-3.434h0L41.2,47.014a.851.851,0,0,0-1.2,1.2l3.878,3.877-1.78,1.78-4.83-4.83a.851.851,0,0,0-1.2,1.2l1.045,1.045,2.832,2.833-1.78,1.78-2.793-2.792-.993-.993h0l-1.044-1.044a.851.851,0,0,0-1.2,1.2l1.952,1.952,1.925,1.925-1.784,1.784-20.079-19.8c.322-.331.657-.675,1-1.028.5-.517.994-1.027,1.433-1.472a5.4,5.4,0,0,0,6.071-5.381,5.39,5.39,0,0,0-.044-.664l2.2-2.249,2.3,2.274-8.03,7.963a.851.851,0,0,0,.07,1.27c.2.159,4.856,3.687,12.944-4.51L47.813,50.063ZM43.985,43.83,32.676,32.52a.82.82,0,0,0-.615-.249.851.851,0,0,0-.607.268c-5.218,5.552-8.713,5.721-10.289,5.356l10.407-10.32,4.081.435-.612.641a.85.85,0,1,0,1.229,1.176l4.889-5.115L51.889,35.443Zm1.488-24.421a2.658,2.658,0,1,0,2.658-2.658A2.661,2.661,0,0,0,45.473,19.409Zm3.615,0a.957.957,0,1,1-.957-.957A.958.958,0,0,1,49.088,19.409Z" transform="translate(0 -5.989)" fill="#d7df23"/>
</svg>
