<svg xmlns="http://www.w3.org/2000/svg" width="101" height="101" viewBox="0 0 101 101">
  <g id="payment-method-svgrepo-com" transform="translate(-0.001)">
    <g id="Group_6720" data-name="Group 6720" transform="translate(0.001)">
      <path id="Path_1201" data-name="Path 1201" d="M49.7,174H26.9v-1.629a6.522,6.522,0,0,0-6.516-6.516H18.751V121.875h39.1v43.984H56.218a6.523,6.523,0,0,0-6.516,6.516V174Z" transform="translate(-12.235 -79.52)" fill="#54a958"/>
      <path id="Path_1202" data-name="Path 1202" d="M63.533,45.613a4.893,4.893,0,0,0,4.887-4.887V4.887A4.893,4.893,0,0,0,63.533,0H4.888A4.893,4.893,0,0,0,0,4.887V101H52.13V45.613ZM65.162,16.29H3.259V11.4h61.9ZM4.888,3.258H63.533a1.631,1.631,0,0,1,1.629,1.629V8.145H3.259V4.887A1.631,1.631,0,0,1,4.888,3.258ZM3.259,19.548h61.9V40.726a1.631,1.631,0,0,1-1.629,1.629H4.888a1.631,1.631,0,0,1-1.629-1.629V19.548Zm34.21,35.839a11.4,11.4,0,1,1-17.235-9.774H31.9A11.4,11.4,0,0,1,37.469,55.387Zm11.4,42.355H3.259V45.313a4.831,4.831,0,0,0,1.629.3h10.3a14.661,14.661,0,1,0,21.757,0H48.871V97.742Z" transform="translate(-0.001)" fill="#285460"/>
      <path id="Path_1203" data-name="Path 1203" d="M128.392,88.032a6.448,6.448,0,0,0,3.263-.9,6.432,6.432,0,0,0,3.253.9,6.516,6.516,0,0,0,0-13.032,6.428,6.428,0,0,0-3.253.9,6.447,6.447,0,0,0-3.263-.9,6.516,6.516,0,1,0,0,13.032Zm9.774-6.516a3.258,3.258,0,1,1-3.258-3.258A3.261,3.261,0,0,1,138.166,81.516Zm-9.774-3.258a3.108,3.108,0,0,1,.837.129,6.268,6.268,0,0,0,0,6.259,3.108,3.108,0,0,1-.837.129,3.258,3.258,0,1,1,0-6.516Z" transform="translate(-79.521 -48.936)" fill="#285460"/>
      <path id="Path_1204" data-name="Path 1204" d="M182.182,159.375a22.806,22.806,0,1,0,22.806,22.806A22.832,22.832,0,0,0,182.182,159.375Zm0,42.355a19.548,19.548,0,1,1,19.548-19.548A19.57,19.57,0,0,1,182.182,201.73Z" transform="translate(-103.989 -103.988)" fill="#285460"/>
      <path id="Path_1205" data-name="Path 1205" d="M209.093,181.383h-.815v-3.258H205.02v3.258h-.815a7.331,7.331,0,1,0,0,14.661h4.887a4.073,4.073,0,1,1,0,8.145h-4.887a4.077,4.077,0,0,1-4.073-4.073V199.3h-3.258v.815a7.34,7.34,0,0,0,7.331,7.331h.815v3.258h3.258v-3.258h.815a7.331,7.331,0,1,0,0-14.661h-4.887a4.073,4.073,0,1,1,0-8.145h4.887a4.077,4.077,0,0,1,4.073,4.073v.815h3.258v-.815A7.34,7.34,0,0,0,209.093,181.383Z" transform="translate(-128.456 -116.222)" fill="#285460"/>
      <path id="Path_1206" data-name="Path 1206" d="M211.749,9.164V43.373h3.258V9.164l1.955,2.606,2.606-1.955-6.19-8.254-6.19,8.254,2.606,1.955Z" transform="translate(-135.185 -1.019)" fill="#285460"/>
      <rect id="Rectangle_995" data-name="Rectangle 995" width="3" height="4" transform="translate(77 46)" fill="#285460"/>
      <path id="Path_1207" data-name="Path 1207" d="M258.624,37.289V66.611h3.258V37.289l1.955,2.606,2.606-1.955-6.19-8.254-6.19,8.254,2.606,1.955Z" transform="translate(-165.77 -19.369)" fill="#285460"/>
      <rect id="Rectangle_996" data-name="Rectangle 996" width="3" height="4" transform="translate(93 51)" fill="#285460"/>
    </g>
  </g>
</svg>
