<svg xmlns="http://www.w3.org/2000/svg" width="126.297" height="148.998" viewBox="0 0 126.297 148.998">
  <g id="Group_6738" data-name="Group 6738" transform="translate(900.719 -2544.001)">
    <g id="Group_6735" data-name="Group 6735" transform="translate(-1180 -20)">
      <g id="Group_6655" data-name="Group 6655" transform="translate(1312.404 1614.545)">
        <path id="star-svgrepo-com_1_" data-name="star-svgrepo-com (1)" d="M11.722,5.573a.21.21,0,0,0-.17-.143l-3.8-.552-1.7-3.442a.21.21,0,0,0-.376,0l-1.7,3.443L.18,5.43a.21.21,0,0,0-.117.358l2.749,2.68-.649,3.784a.21.21,0,0,0,.083.205.208.208,0,0,0,.221.016l3.4-1.786,3.4,1.786a.21.21,0,0,0,.3-.221L8.92,8.468l2.749-2.68A.21.21,0,0,0,11.722,5.573Z" transform="translate(-941.757 957.071)" fill="#fff" stroke="#285460" stroke-width="1"/>
        <path id="star-svgrepo-com_1_2" data-name="star-svgrepo-com (1)" d="M18.756,8.126a.337.337,0,0,0-.271-.229l-6.078-.883L9.687,1.505a.335.335,0,0,0-.6,0L6.367,7.014.288,7.9A.336.336,0,0,0,.1,8.47l4.4,4.288L3.462,18.812a.337.337,0,0,0,.133.329.333.333,0,0,0,.354.026l5.437-2.858,5.437,2.858a.336.336,0,0,0,.488-.354l-1.038-6.054,4.4-4.288A.336.336,0,0,0,18.756,8.126Z" transform="translate(-926.106 980.548)" fill="#fff" stroke="#285460" stroke-width="1"/>
        <path id="star-svgrepo-com_1_3" data-name="star-svgrepo-com (1)" d="M9.378,4.722a.168.168,0,0,0-.136-.114L6.2,4.166,4.844,1.412a.168.168,0,0,0-.3,0L3.183,4.166.144,4.608a.168.168,0,0,0-.093.286l2.2,2.144-.519,3.027a.168.168,0,0,0,.067.164.167.167,0,0,0,.177.013L4.693,8.813l2.718,1.429a.168.168,0,0,0,.244-.177L7.136,7.038l2.2-2.144A.168.168,0,0,0,9.378,4.722Z" transform="translate(-972.5 963.779)" fill="#fff" stroke="#285460" stroke-width="0.5"/>
        <g id="Group_6653" data-name="Group 6653" transform="translate(-956.29 954.702)">
          <path id="Path_65" data-name="Path 65" d="M-1152,1035.4h3.689" transform="translate(1152 -1033.557)" fill="none" stroke="#285460" stroke-linecap="round" stroke-width="1"/>
          <path id="Path_66" data-name="Path 66" d="M0,0H3.689" transform="matrix(0.035, 0.999, -0.999, 0.035, 1.78, 0)" fill="none" stroke="#285460" stroke-linecap="round" stroke-width="1"/>
        </g>
        <g id="Group_6654" data-name="Group 6654" transform="translate(-919.976 963.059)">
          <path id="Path_65-2" data-name="Path 65" d="M-1152,1035.4h6.513" transform="translate(1152 -1032.146)" fill="none" stroke="#285460" stroke-linecap="round" stroke-width="1"/>
          <path id="Path_66-2" data-name="Path 66" d="M0,0H6.513" transform="matrix(0.035, 0.999, -0.999, 0.035, 3.143, 0)" fill="none" stroke="#285460" stroke-linecap="round" stroke-width="1"/>
        </g>
        <path id="Path_67" data-name="Path 67" d="M-109.5,2347.5s-48.5,3.5-57,33,63,42.5,65.5,43.5,48.5,2.5,53.5,15-17,22.5-17,22.5-105.5-17.5-88,7.5,43,26.5,43,26.5" transform="translate(-865.404 -1397.545)" fill="none" stroke="#285460" stroke-width="1" stroke-dasharray="1" opacity="0.39"/>
        <g id="Group_6652" data-name="Group 6652" transform="translate(341.474 -483.402)">
          <g id="Group_6651" data-name="Group 6651" transform="translate(-1357.372 1472.465)">
            <path id="Path_63" data-name="Path 63" d="M-1260,1501.143l28.523-27.143s5.521,7.821,11.961,9.661,19.782,0,21.623-3.22,6.441-6.441,6.441-6.441l28.063,27.143v30.364h-11.041v-27.143l-13.342-10.581h-46.005l-13.342,10.581v27.143H-1260Z" transform="translate(1260 -1474)" fill="#fff"/>
            <path id="Path_64" data-name="Path 64" d="M-1203,1573h43.705v27.143H-1203Z" transform="translate(1229.223 -1527.455)" fill="#fff"/>
          </g>
          <path id="sweater-svgrepo-com_1_" data-name="sweater-svgrepo-com (1)" d="M103.946,64.777c0-.033,0-.066,0-.1s-.007-.052-.01-.078-.008-.057-.013-.085-.012-.054-.019-.081-.012-.052-.02-.078-.017-.053-.026-.079-.018-.051-.028-.076-.022-.049-.033-.074-.023-.05-.036-.075-.027-.047-.04-.07-.028-.048-.043-.071-.033-.047-.05-.07-.03-.042-.047-.062-.043-.05-.066-.074-.024-.029-.038-.042L76.3,35.832a1.674,1.674,0,0,0-.812-.46L63.617,32.547H63.61a1.68,1.68,0,0,0-.248-.038l-.032,0a1.676,1.676,0,0,0-1.4.61l0,0a1.686,1.686,0,0,0-.148.212l-.007.01c-.011.019-.045.076-.1.165l-.016.024-.041.061-.07.1h0a11.462,11.462,0,0,1-8.89,4.617l-.047,0q-.31.014-.633.014a11.342,11.342,0,0,1-9.8-4.978,1.674,1.674,0,0,0-.141-.206l-.028-.036a1.7,1.7,0,0,0-.165-.173l-.025-.021a1.68,1.68,0,0,0-.186-.141l-.015-.01a1.671,1.671,0,0,0-.209-.111l-.044-.019a1.677,1.677,0,0,0-.218-.075l-.036-.008a1.656,1.656,0,0,0-.214-.037l-.034,0a1.663,1.663,0,0,0-.238,0l-.043,0a1.675,1.675,0,0,0-.245.038h-.007l-7.048,1.677-.061.015-4.766,1.134a1.674,1.674,0,0,0-.812.46L.477,63.663c-.013.014-.025.029-.038.042s-.045.049-.066.074-.031.042-.047.062-.034.046-.05.07-.029.047-.043.071-.028.046-.04.07-.024.05-.036.075-.023.049-.033.074-.019.051-.028.076-.019.052-.026.079-.014.052-.02.078-.014.054-.019.081-.009.056-.013.085-.008.051-.01.078,0,.066,0,.1,0,.038,0,.057V97.143A4.86,4.86,0,0,0,3.175,101.7v4.972a1.676,1.676,0,0,0,1.677,1.677h7.815a1.676,1.676,0,0,0,1.677-1.677V101.7a4.86,4.86,0,0,0,3.175-4.553v-22.1l9.65-9.293V110.8a4.86,4.86,0,0,0,3.175,4.553v4.885a1.677,1.677,0,0,0,1.677,1.677H71.928a1.677,1.677,0,0,0,1.677-1.677v-4.885A4.86,4.86,0,0,0,76.78,110.8V65.752l9.65,9.293v22.1A4.86,4.86,0,0,0,89.6,101.7v4.972a1.676,1.676,0,0,0,1.677,1.677H99.1a1.676,1.676,0,0,0,1.677-1.677V101.7a4.86,4.86,0,0,0,3.175-4.553V64.834C103.949,64.815,103.947,64.8,103.946,64.777ZM10.991,104.991H6.528v-3H10.99v3ZM73.427,110.8a1.5,1.5,0,0,1-1.134,1.452,1.653,1.653,0,0,0-.9.047H43.2a1.677,1.677,0,0,0,0,3.353H70.252v2.909H33.7v-2.909h2.794a1.677,1.677,0,0,0,0-3.353H32.553a1.653,1.653,0,0,0-.9-.047,1.5,1.5,0,0,1-1.134-1.452V84.864h42.9Zm0-29.294h-42.9V73.1l5.135,3.254a1.676,1.676,0,0,0,1.795,0l6.812-4.316,6.812,4.316a1.676,1.676,0,0,0,1.795,0l6.812-4.316L66.5,76.358a1.676,1.676,0,0,0,1.794,0L73.427,73.1Zm0-12.377-6.034,3.823L60.58,68.64a1.676,1.676,0,0,0-1.795,0l-6.812,4.316L45.161,68.64a1.676,1.676,0,0,0-1.795,0l-6.812,4.316-6.032-3.822V63.486h42.9Zm23.994,35.858H92.958v-3h4.462Zm3.175-7.849a1.5,1.5,0,0,1-1.5,1.5H91.282a1.5,1.5,0,0,1-1.5-1.5v-39.9a1.677,1.677,0,1,0-3.353,0V70.39L76.267,60.6l-.021-.017a1.667,1.667,0,0,0-.149-.124l-.034-.025a1.682,1.682,0,0,0-.186-.112l-.036-.017a1.663,1.663,0,0,0-.176-.074l-.036-.013a1.717,1.717,0,0,0-.209-.055l-.043-.007a1.612,1.612,0,0,0-.172-.019l-.064,0-.037,0H28.845l-.037,0-.064,0q-.087.005-.172.019l-.043.007a1.63,1.63,0,0,0-.209.055l-.036.013a1.636,1.636,0,0,0-.176.074l-.036.017a1.682,1.682,0,0,0-.186.112l-.034.025a1.677,1.677,0,0,0-.149.124l-.021.017L17.519,70.39V57.3a1.677,1.677,0,0,0-3.353,0V97.143a1.5,1.5,0,0,1-1.5,1.5H4.852a1.5,1.5,0,0,1-1.5-1.5V65.517l26.353-27,3.123-.743a22.851,22.851,0,0,0,26.259,9.374,1.677,1.677,0,1,0-1.047-3.186,19.474,19.474,0,0,1-21.7-7.023L40,36.072l.044.056.055.069.141.172.047.057q.1.116.2.237l.046.051c.058.065.118.131.18.2l.075.081q.089.094.183.192l.072.074c.087.088.176.177.269.266l.042.039q.121.115.249.232l.1.086q.111.1.228.2l.1.084c.11.093.222.185.338.278l.005,0c.114.091.232.181.353.271l.112.082q.137.1.279.2l.123.085q.174.118.356.235l.054.035q.209.132.428.26l.125.072q.165.094.335.186l.148.079q.189.1.385.194l.1.049q.245.117.5.228l.131.055q.2.083.4.162l.172.066q.207.077.421.149l.141.048q.282.093.576.176l.125.033q.237.065.481.124l.2.045q.229.052.464.1l.18.035c.214.039.431.075.653.106l.091.011q.29.039.59.068l.217.019q.254.021.514.035l.216.011c.241.01.486.017.735.017s.494-.007.735-.017l.216-.011q.26-.014.514-.035l.217-.019q.3-.029.59-.068l.091-.011c.222-.031.439-.067.653-.106l.18-.035q.235-.046.464-.1l.2-.045q.244-.058.481-.124l.125-.033q.293-.083.575-.176l.141-.048q.214-.073.421-.149l.173-.066q.2-.079.4-.162l.131-.055q.256-.111.5-.227l.1-.049q.2-.1.384-.194l.149-.08q.17-.092.334-.186l.126-.072q.219-.128.428-.26l.056-.036q.181-.116.353-.234L60.832,39q.141-.1.277-.2l.113-.083c.119-.089.237-.179.349-.268l.009-.007c.116-.092.228-.185.337-.277l.1-.085q.116-.1.227-.2l.1-.087q.127-.116.246-.23l.045-.042c.093-.089.182-.178.268-.265l.075-.077q.093-.1.18-.188l.078-.084q.091-.1.176-.194l.049-.055c.071-.08.138-.159.2-.236l.05-.061c.047-.057.093-.113.137-.168l.057-.072.043-.054,3.661.871a21.17,21.17,0,0,1-4.12,4.154,1.677,1.677,0,1,0,2.022,2.675,24.414,24.414,0,0,0,5.61-5.993l3.121.743L100.6,65.517Z" transform="translate(-1361.948 1432.691)" fill="#285460"/>
        </g>
      </g>
      <rect id="Rectangle_972" data-name="Rectangle 972" width="45" height="21" transform="translate(321 2626)" fill="#54a958"/>
      <path id="Path_68" data-name="Path 68" d="M-127.2,2410l11.2,14.4,11-9.2,12,7.8,10.4-10.2" transform="translate(447 217)" fill="none" stroke="#285460" stroke-width="1"/>
    </g>
  </g>
</svg>
