<svg xmlns="http://www.w3.org/2000/svg" width="55.41" height="47.664" viewBox="0 0 55.41 47.664">
  <g id="Group_6749" data-name="Group 6749" transform="translate(1020.474 -981.791)">
    <g id="Group_6652" data-name="Group 6652" transform="translate(-1020.474 981.791)">
      <path id="sweater-svgrepo-com_1_" data-name="sweater-svgrepo-com (1)" d="M55.409,49.706c0-.018,0-.035,0-.053s0-.028-.005-.041,0-.03-.007-.045-.007-.029-.01-.043-.007-.028-.011-.042-.009-.028-.014-.042-.009-.027-.015-.041-.012-.026-.018-.039-.012-.027-.019-.04-.014-.025-.021-.037-.015-.025-.023-.038l-.027-.037-.025-.033c-.011-.014-.023-.027-.035-.04l-.02-.023L40.674,34.277a.892.892,0,0,0-.433-.245l-6.33-1.506h0a.9.9,0,0,0-.132-.02h-.017a.893.893,0,0,0-.745.325l0,0a.9.9,0,0,0-.079.113l0,.005c-.006.01-.024.041-.055.088l-.008.013-.022.032-.037.054h0A6.11,6.11,0,0,1,28.068,35.6l-.025,0q-.166.008-.337.008a6.046,6.046,0,0,1-5.222-2.654.892.892,0,0,0-.075-.11l-.015-.019a.9.9,0,0,0-.088-.092l-.013-.011a.9.9,0,0,0-.1-.075l-.008-.005a.891.891,0,0,0-.111-.059l-.023-.01a.9.9,0,0,0-.116-.04l-.019,0a.883.883,0,0,0-.114-.02l-.018,0a.886.886,0,0,0-.127,0l-.023,0a.893.893,0,0,0-.13.02h0l-3.757.894-.033.008-2.54.6a.892.892,0,0,0-.433.245L.254,49.112l-.02.023c-.012.013-.024.026-.035.04l-.025.033-.027.037c-.008.012-.015.025-.023.038S.11,49.307.1,49.32s-.013.027-.019.04-.012.026-.018.039-.01.027-.015.041-.01.028-.014.042-.007.028-.011.042-.007.029-.01.043,0,.03-.007.045,0,.027-.005.041,0,.035,0,.053,0,.02,0,.03V66.959a2.591,2.591,0,0,0,1.692,2.427v2.651a.894.894,0,0,0,.894.894H6.752a.894.894,0,0,0,.894-.894V69.386a2.591,2.591,0,0,0,1.692-2.427V55.18l5.144-4.954V74.241a2.591,2.591,0,0,0,1.692,2.427v2.6a.894.894,0,0,0,.894.894H38.341a.894.894,0,0,0,.894-.894v-2.6a2.591,2.591,0,0,0,1.692-2.427V50.226l5.144,4.954V66.959a2.591,2.591,0,0,0,1.692,2.427v2.651a.894.894,0,0,0,.894.894h4.166a.894.894,0,0,0,.894-.894V69.386a2.591,2.591,0,0,0,1.692-2.427V49.736C55.41,49.726,55.409,49.716,55.409,49.706ZM5.859,71.142H3.48v-1.6H5.858v1.6Zm33.282,3.1a.8.8,0,0,1-.6.774.881.881,0,0,0-.478.025H23.027a.894.894,0,1,0,0,1.787H37.448v1.551H17.962V76.828h1.49a.894.894,0,0,0,0-1.787h-2.1a.881.881,0,0,0-.478-.025.8.8,0,0,1-.6-.774V60.414H39.14Zm0-15.615H16.27V54.145l2.737,1.735a.894.894,0,0,0,.957,0l3.631-2.3,3.631,2.3a.894.894,0,0,0,.957,0l3.631-2.3,3.632,2.3a.893.893,0,0,0,.957,0l2.738-1.735Zm0-6.6-3.216,2.038-3.632-2.3a.894.894,0,0,0-.957,0l-3.631,2.3-3.631-2.3a.894.894,0,0,0-.957,0l-3.631,2.3L16.27,52.028v-3.01H39.14ZM51.93,71.142H49.552v-1.6H51.93Zm1.692-4.184a.8.8,0,0,1-.8.8H48.658a.8.8,0,0,1-.8-.8V45.689a.894.894,0,1,0-1.787,0V52.7l-5.418-5.217-.011-.009a.889.889,0,0,0-.08-.066l-.018-.014a.9.9,0,0,0-.1-.06l-.019-.009a.886.886,0,0,0-.094-.04l-.019-.007a.915.915,0,0,0-.112-.029l-.023,0a.861.861,0,0,0-.092-.01l-.034,0h-24.7l-.034,0q-.046,0-.092.01l-.023,0a.869.869,0,0,0-.112.029l-.019.007a.872.872,0,0,0-.094.04l-.019.009a.9.9,0,0,0-.1.06l-.018.014a.894.894,0,0,0-.08.066l-.011.009L9.338,52.7V45.72a.894.894,0,0,0-1.787,0V66.959a.8.8,0,0,1-.8.8H2.586a.8.8,0,0,1-.8-.8V50.1L15.835,35.71l1.665-.4a12.181,12.181,0,0,0,14,5,.894.894,0,1,0-.558-1.7A10.381,10.381,0,0,1,19.37,34.869l1.952-.464.024.03.029.037.075.092.025.03.109.127.025.027.1.106.04.043.1.1.038.04c.046.047.094.094.144.142l.022.021q.064.062.133.124l.051.046.122.107.052.045c.058.049.118.1.18.148l0,0c.061.048.124.1.188.144l.06.044.149.106.066.045q.093.063.19.125l.029.019q.111.07.228.139l.067.038q.088.05.179.1l.079.042q.1.053.205.1l.053.026q.13.062.267.121l.07.029q.105.044.214.086l.092.035q.11.041.225.08l.075.026q.15.049.307.094l.066.018q.126.035.256.066l.1.024q.122.027.247.052l.1.019c.114.021.23.04.348.056l.048.006q.155.021.314.036l.116.01q.135.011.274.019l.115.006c.129.005.259.009.392.009s.263,0,.392-.009l.115-.006q.139-.008.274-.019l.116-.01q.16-.016.314-.036l.048-.006c.118-.016.234-.035.348-.056l.1-.019q.125-.024.247-.052l.1-.024q.13-.031.256-.066l.066-.018q.156-.044.307-.094l.075-.026q.114-.039.224-.079l.092-.035q.108-.042.213-.086l.07-.029q.136-.059.267-.121l.053-.026q.1-.051.2-.1l.079-.042q.091-.049.178-.1l.067-.038q.117-.068.228-.139l.03-.019q.1-.062.188-.125l.066-.046.148-.105.06-.044c.064-.048.126-.1.186-.143l0,0c.062-.049.121-.1.18-.148l.053-.045.121-.106.051-.046.131-.122.024-.022c.049-.048.1-.095.143-.141l.04-.041.1-.1.042-.045.094-.1.026-.029c.038-.043.074-.085.108-.126l.027-.032.073-.089.031-.038.023-.029,1.952.464a11.284,11.284,0,0,1-2.2,2.214.894.894,0,1,0,1.078,1.426,13.014,13.014,0,0,0,2.991-3.194l1.663.4L53.623,50.1Z" transform="translate(0 -32.502)" fill="#d7df23"/>
    </g>
  </g>
</svg>
