<svg xmlns="http://www.w3.org/2000/svg" xmlns:xlink="http://www.w3.org/1999/xlink" width="136.154" height="124.436" viewBox="0 0 136.154 124.436">
  <defs>
    <filter id="Exclusion_1" x="20.386" y="34.09" width="100" height="88" filterUnits="userSpaceOnUse">
      <feOffset dx="10" dy="10" input="SourceAlpha"/>
      <feGaussianBlur stdDeviation="5" result="blur"/>
      <feFlood flood-opacity="0.231"/>
      <feComposite operator="in" in2="blur"/>
      <feComposite in="SourceGraphic"/>
    </filter>
    <filter id="Path_74" x="77.625" y="64.791" width="50.447" height="52.447" filterUnits="userSpaceOnUse">
      <feOffset dx="10" dy="12" input="SourceAlpha"/>
      <feGaussianBlur stdDeviation="2.5" result="blur-2"/>
      <feFlood flood-opacity="0.212"/>
      <feComposite operator="in" in2="blur-2"/>
      <feComposite in="SourceGraphic"/>
    </filter>
  </defs>
  <g id="Group_6741" data-name="Group 6741" transform="translate(886.573 -1353.91)">
    <g id="Group_6740" data-name="Group 6740" transform="translate(-1165 -1762)">
      <g id="Group_6658" data-name="Group 6658" transform="translate(289.022 3122.761)">
        <g transform="matrix(1, 0, 0, 1, -10.6, -6.85)" filter="url(#Exclusion_1)">
          <path id="Exclusion_1-2" data-name="Exclusion 1" d="M70,58H0V0H70V58ZM25.046,5.8v8.377H45.6V5.8Z" transform="translate(25.39 39.09)" fill="#fff"/>
        </g>
        <g id="product-svgrepo-com" transform="translate(0)">
          <rect id="Rectangle_973" data-name="Rectangle 973" width="101" height="101" transform="translate(-0.209 0.239)" fill="none"/>
          <g id="Group_6657" data-name="Group 6657" transform="translate(10.329 17.646)">
            <path id="Path_69" data-name="Path 69" d="M85.483,10.833H5V30.954H7.26V77.114a8.39,8.39,0,0,0,8.393,8.393H74.4a8.39,8.39,0,0,0,8.393-8.393V30.954h2.69ZM11.456,14.169H78.6v8.393H11.456ZM77.521,82.924H14.469L10.38,78.19V25.682H79.888V77.114Z" transform="translate(-5 -10.833)" fill="#285460"/>
          </g>
        </g>
      </g>
      <path id="star-svgrepo-com_1_" data-name="star-svgrepo-com (1)" d="M13.318,6.152a.239.239,0,0,0-.193-.162L8.809,5.362,6.879,1.451a.238.238,0,0,0-.428,0L4.521,5.362.2,5.99A.238.238,0,0,0,.072,6.4L3.2,9.441l-.737,4.3a.239.239,0,0,0,.095.233.237.237,0,0,0,.251.018l3.861-2.029,3.86,2.029a.238.238,0,0,0,.346-.251l-.737-4.3L13.258,6.4A.239.239,0,0,0,13.318,6.152Z" transform="translate(372.692 3115.092)" fill="#fff" stroke="#285460" stroke-width="1"/>
      <path id="star-svgrepo-com_1_2" data-name="star-svgrepo-com (1)" d="M21.308,9.052A.383.383,0,0,0,21,8.792l-6.906-1L11.006,1.531a.381.381,0,0,0-.684,0L7.233,7.789l-6.906,1a.382.382,0,0,0-.212.651l5,4.871-1.18,6.878a.383.383,0,0,0,.152.373.379.379,0,0,0,.4.029l6.177-3.247,6.177,3.247a.382.382,0,0,0,.554-.4l-1.18-6.878,5-4.871A.382.382,0,0,0,21.308,9.052Z" transform="translate(392.746 3135.617)" fill="#fff" stroke="#285460" stroke-width="1"/>
      <g id="Group_6659" data-name="Group 6659" transform="translate(323.391 3122.761)">
        <path id="Path_65" data-name="Path 65" d="M-1147.809,1035.4H-1152" transform="translate(1152 -1033.306)" fill="none" stroke="#285460" stroke-linecap="round" stroke-width="1"/>
        <path id="Path_66" data-name="Path 66" d="M0,0H4.191" transform="matrix(-0.035, 0.999, -0.999, -0.035, 2.169, 0)" fill="none" stroke="#285460" stroke-linecap="round" stroke-width="1"/>
      </g>
      <g id="Group_6660" data-name="Group 6660" transform="translate(278.927 3132.256)">
        <path id="Path_65-2" data-name="Path 65" d="M-1144.6,1035.4h-7.4" transform="translate(1152 -1031.703)" fill="none" stroke="#285460" stroke-linecap="round" stroke-width="1"/>
        <path id="Path_66-2" data-name="Path 66" d="M0,0H7.4" transform="matrix(-0.035, 0.999, -0.999, -0.035, 3.829, 0)" fill="none" stroke="#285460" stroke-linecap="round" stroke-width="1"/>
      </g>
      <g id="Group_6661" data-name="Group 6661" transform="translate(346.275 3176.725)">
        <g id="quality-svgrepo-com" transform="translate(0 0)">
          <path id="Path_70" data-name="Path 70" d="M92.6,56.634,84.174,36.3a1.015,1.015,0,1,0-1.876.777l7.614,18.383-6.945-2.012a1.015,1.015,0,0,0-1.172.485l-3.488,6.334-8.17-19.725a20.472,20.472,0,1,0-20.29-7.884L39.915,56.634A1.015,1.015,0,0,0,41.136,58l8.194-2.374L53.445,63.1a1.015,1.015,0,0,0,.889.525h.056a1.016,1.016,0,0,0,.882-.625l7.87-19a1.015,1.015,0,0,0-1.876-.777L54.2,60.266l-3.488-6.334a1.015,1.015,0,0,0-1.172-.485L42.6,55.459l8.717-21.045a20.4,20.4,0,0,0,14.939,6.5c.608,0,1.209-.028,1.8-.08l9.18,22.163a1.015,1.015,0,0,0,.882.625l.056,0a1.015,1.015,0,0,0,.889-.525l4.115-7.473L91.376,58a1.015,1.015,0,0,0,1.22-1.364ZM47.83,20.456A18.426,18.426,0,1,1,66.256,38.882,18.447,18.447,0,0,1,47.83,20.456Z" transform="translate(-39.838 0)" fill="#54a958"/>
          <path id="Path_72" data-name="Path 72" d="M145.655,47.419a1.015,1.015,0,0,0-1.14.873,14.365,14.365,0,1,1,0-3.794,1.015,1.015,0,1,0,2.013-.267,16.395,16.395,0,1,0,0,4.327,1.015,1.015,0,0,0-.873-1.14Z" transform="translate(-103.858 -25.939)"/>
          <g transform="matrix(1, 0, 0, 1, -67.85, -60.82)" filter="url(#Path_74)">
            <g id="Path_74-2" data-name="Path 74" transform="translate(77.63 64.79)" fill="#fff">
              <path d="M 16.473388671875 32.44674301147461 C 12.20673847198486 32.44674301147461 8.195468902587891 30.78522109985352 5.1784987449646 27.76825141906738 C 2.161518573760986 24.75128173828125 0.4999986588954926 20.74001121520996 0.4999986588954926 16.4733715057373 C 0.4999986588954926 12.20673179626465 2.161518573760986 8.195461273193359 5.1784987449646 5.178491592407227 C 8.195468902587891 2.161521434783936 12.20673847198486 0.5000014901161194 16.473388671875 0.5000014901161194 C 20.74003791809082 0.5000014901161194 24.75130844116211 2.161521434783936 27.76827812194824 5.178491592407227 C 30.78525924682617 8.195461273193359 32.44677734375 12.20673179626465 32.44677734375 16.4733715057373 C 32.44677734375 20.74001121520996 30.78525924682617 24.75128173828125 27.76827812194824 27.76825141906738 C 24.75130844116211 30.78522109985352 20.74003791809082 32.44674301147461 16.473388671875 32.44674301147461 Z" stroke="none"/>
              <path d="M 16.473388671875 1.000001907348633 C 12.34029960632324 1.000001907348633 8.454587936401367 2.609512329101562 5.532049179077148 5.532051086425781 C 2.609508514404297 8.454582214355469 0.9999980926513672 12.34028244018555 0.9999980926513672 16.4733715057373 C 0.9999980926513672 20.60646057128906 2.609508514404297 24.49216079711914 5.532049179077148 27.41469192504883 C 8.454587936401367 30.33723068237305 12.34029960632324 31.94674110412598 16.473388671875 31.94674110412598 C 20.60647964477539 31.94674110412598 24.4921875 30.33723068237305 27.41472816467285 27.41469192504883 C 30.3372688293457 24.49216079711914 31.94677925109863 20.60646057128906 31.94677925109863 16.4733715057373 C 31.94677925109863 12.34028244018555 30.3372688293457 8.454582214355469 27.41472816467285 5.532051086425781 C 24.4921875 2.609512329101562 20.60647964477539 1.000001907348633 16.473388671875 1.000001907348633 M 16.473388671875 0 C 25.57138824462891 0 32.94677734375 7.375381469726562 32.94677734375 16.4733715057373 C 32.94677734375 25.57136154174805 25.57138824462891 32.94674301147461 16.473388671875 32.94674301147461 C 7.375389099121094 32.94674301147461 0 25.57136154174805 0 16.4733715057373 C 0 7.375381469726562 7.375389099121094 0 16.473388671875 0 Z" stroke="none" fill="#54a958"/>
            </g>
          </g>
          <path id="star-svgrepo-com_1_3" data-name="star-svgrepo-com (1)" d="M21.308,9.052A.383.383,0,0,0,21,8.792l-6.906-1L11.006,1.531a.381.381,0,0,0-.684,0L7.233,7.789l-6.906,1a.382.382,0,0,0-.212.651l5,4.871-1.18,6.878a.383.383,0,0,0,.152.373.379.379,0,0,0,.4.029l6.177-3.247,6.177,3.247a.382.382,0,0,0,.554-.4l-1.18-6.878,5-4.871A.382.382,0,0,0,21.308,9.052Z" transform="translate(15.587 8.971)" fill="#54a958"/>
        </g>
      </g>
    </g>
  </g>
</svg>
