<svg xmlns="http://www.w3.org/2000/svg" xmlns:xlink="http://www.w3.org/1999/xlink" width="134.914" height="175.621" viewBox="0 0 134.914 175.621">
  <defs>
    <filter id="Path_18" x="0" y="0" width="128.929" height="156.095" filterUnits="userSpaceOnUse">
      <feOffset dx="13" dy="15" input="SourceAlpha"/>
      <feGaussianBlur stdDeviation="6.5" result="blur"/>
      <feFlood flood-opacity="0.161"/>
      <feComposite operator="in" in2="blur"/>
      <feComposite in="SourceGraphic"/>
    </filter>
    <filter id="Path_32" x="27.714" y="63.047" width="107.199" height="112.573" filterUnits="userSpaceOnUse">
      <feOffset dy="15" input="SourceAlpha"/>
      <feGaussianBlur stdDeviation="5" result="blur-2"/>
      <feFlood flood-opacity="0.161"/>
      <feComposite operator="in" in2="blur-2"/>
      <feComposite in="SourceGraphic"/>
    </filter>
  </defs>
  <g id="Group_6732" data-name="Group 6732" transform="translate(-293.183 -1279.642)">
    <g id="Group_6639" data-name="Group 6639" transform="translate(297.943 1280.911)">
      <g id="Group_6629" data-name="Group 6629" transform="translate(0 0)">
        <g transform="matrix(1, 0, 0, 1, -4.76, -1.27)" filter="url(#Path_18)">
          <path id="Path_18-2" data-name="Path 18" d="M0,0H71.194L89.929,18.735v98.36H0Z" transform="translate(6.5 4.5)" fill="#fff"/>
        </g>
        <g id="signing-the-contract-svgrepo-com">
          <g id="Group_6620" data-name="Group 6620" transform="translate(0 0)">
            <g id="Group_6619" data-name="Group 6619" transform="translate(0 0)">
              <path id="Path_10" data-name="Path 10" d="M88.764,22.871h17.717V84.41l3.451-8.258V22.871a2.414,2.414,0,0,0-.7-1.7L88.764.7a2.407,2.407,0,0,0-1.7-.7H23.787a7.229,7.229,0,0,0-7.221,7.22V116.337a7.229,7.229,0,0,0,7.221,7.22h78.924a7.229,7.229,0,0,0,7.221-7.22V76.153l-3.452,8.258v35.783H20.236V3.364H88.764V22.871C88.764,24.518,87.118,22.871,88.764,22.871Z" transform="translate(-16.566 0)" fill="#285460"/>
            </g>
          </g>
        </g>
        <path id="Path_20" data-name="Path 20" d="M76.5,73.346H99.451a2.942,2.942,0,1,0,0-5.884H76.5a2.942,2.942,0,0,0,0,5.884Z" transform="translate(-60.896 -21.273)" fill="#54a958"/>
        <path id="Path_21" data-name="Path 21" d="M120.044,120.4a2.942,2.942,0,0,0-2.942-2.942H76.5a2.942,2.942,0,0,0,0,5.884h40.6A2.942,2.942,0,0,0,120.044,120.4Z" transform="translate(-60.896 -56.564)" fill="#54a958"/>
        <path id="Path_22" data-name="Path 22" d="M76.5,173.346H99.451a2.942,2.942,0,1,0,0-5.884H76.5a2.942,2.942,0,1,0,0,5.884Z" transform="translate(-60.896 -91.855)" fill="#54a958"/>
        <path id="Path_23" data-name="Path 23" d="M76.5,223.346H99.451a2.942,2.942,0,1,0,0-5.884H76.5a2.942,2.942,0,0,0,0,5.884Z" transform="translate(-60.896 -127.146)" fill="#54a958"/>
      </g>
      <text id="RFQ" transform="translate(11.057 31.089)" fill="#54a958" font-size="17" font-family="NexaBold, Nexa" letter-spacing="0.052em"><tspan x="0" y="0">RFQ</tspan></text>
      <g id="Group_6638" data-name="Group 6638" transform="translate(37.955 61.779)">
        <g id="Group_6637" data-name="Group 6637" transform="translate(0 25.939) rotate(-31)">
          <path id="Path_31" data-name="Path 31" d="M1.315,2.631,0,0" transform="translate(12.218 39.1)" fill="#54a958"/>
          <g transform="matrix(0.86, 0.52, -0.52, 0.86, 9.22, -98.28)" filter="url(#Path_32)">
            <path id="Path_32-2" data-name="Path 32" d="M50.364,34.746c0-2.088-2.368-3.8-5.262-3.8s-1.315,1.709-1.315,3.8V30c0-2.088-2.368-3.8-5.262-3.8s-5.262,1.709-5.262,3.8V26.2c0-2.088-2.368-3.8-5.262-3.8s-5.262,1.709-5.262,3.8V14.813c0-2.088.727-14.757-2.167-14.757-2.4,0-3.154-.8-3.61,3.66-.059.569-.8,10.74-.8,11.1v24.68L13.8,36.93a4.8,4.8,0,0,0-1.578-1.424c-1.184-.854.131,2.563-1.315,2.088-1.315-.38-5.578-9.875-6.893-9.97s.144-.831-.908-.546c-.526.19.4-.267-.128-.077C1.394,27.76,0,27.88,0,28.165S5.246,41.486,9.587,47.086a55.316,55.316,0,0,0,7.892,7.594v2.848c0,4.746,1.315,8.543,7.892,8.543H38.525c5.13,0,6.445-3.132,7.629-6.74a6.194,6.194,0,0,1,1.578-2.753,8.72,8.72,0,0,0,2.631-6.645V34.746Z" transform="translate(42.71 88.99) rotate(-31)" fill="#54a958"/>
          </g>
        </g>
        <g id="tap-svgrepo-com" transform="translate(8.35 9.59)">
          <g id="Group_6631" data-name="Group 6631" transform="translate(0 0)">
            <g id="Group_6630" data-name="Group 6630">
              <path id="Path_25" data-name="Path 25" d="M153.605,151.336a28.654,28.654,0,0,1-1.958-8.1,26.256,26.256,0,0,0-3.8-11.579l-8.131-13.844a5.359,5.359,0,0,0-6.974-1.846,4.961,4.961,0,0,0-1.79,1.755,6.433,6.433,0,0,0-8.293-1.711,6.255,6.255,0,0,0-2.81,3.3,6.445,6.445,0,0,0-7.108-.507,6.251,6.251,0,0,0-2.818,3.324L98.013,105.841c-2.266-3.144-5.259-4.092-8-2.533a5.456,5.456,0,0,0-2.668,3.365,6.521,6.521,0,0,0,.83,5l18.6,29.205a1.364,1.364,0,0,0,2.3-1.464L90.5,110.254a3.792,3.792,0,0,1-.524-2.874,2.741,2.741,0,0,1,1.38-1.7c1.495-.851,2.992-.26,4.451,1.764l14.674,20.071a1.363,1.363,0,0,0,2.276-1.5,3.466,3.466,0,0,1-.364-2.668,3.547,3.547,0,0,1,1.692-2.176,3.69,3.69,0,0,1,4.986,1.3l1.25,2.131a1.363,1.363,0,0,0,2.352-1.38v0a3.456,3.456,0,0,1-.363-2.667A3.542,3.542,0,0,1,124,118.386a3.682,3.682,0,0,1,4.984,1.306l1.876,3.193a1.364,1.364,0,0,0,2.352-1.38l0,0a2.238,2.238,0,0,1-.2-1.722,2.337,2.337,0,0,1,1.077-1.437,2.626,2.626,0,0,1,3.278.855l8.129,13.845a23.358,23.358,0,0,1,3.448,10.539,31.71,31.71,0,0,0,1.7,7.664l-24.034,13.642c-8.859-9.366-25.372-18.007-33.681-20.194-1.477-.39-4.137-1.224-4.632-1.378l.2-.7c.522-1.917,4.67-4.26,6.631-3.75l5.892,1.553a1.363,1.363,0,1,0,.7-2.636l-5.893-1.554c-3.38-.886-9.051,2.345-9.951,5.65l-.224.773c-.014.048-.025.1-.034.147a2.612,2.612,0,0,0,1.52,2.993c.046.02.1.038.143.054.132.041,3.237,1.025,4.956,1.479,8.218,2.164,24.781,10.891,33.09,20.187a1.365,1.365,0,0,0,1.689.277l26-14.757A1.364,1.364,0,0,0,153.605,151.336Z" transform="translate(-85.567 -102.571)" fill="#285460"/>
            </g>
          </g>
        </g>
      </g>
    </g>
  </g>
</svg>
