<svg xmlns="http://www.w3.org/2000/svg" width="58.5" height="60.222" viewBox="0 0 58.5 60.222">
  <path id="payment-method-svgrepo-com_1_" data-name="payment-method-svgrepo-com (1)" d="M60.583,17.713H48.191a13.281,13.281,0,1,0-25.048,0H10.751a4.339,4.339,0,0,0-4.334,4.334v30.1a4.339,4.339,0,0,0,4.334,4.334H24.843l-1.6,1.725H20.818a1.006,1.006,0,1,0,0,2.013h29.7a1.006,1.006,0,1,0,0-2.013H48.093l-1.6-1.725H60.583a4.339,4.339,0,0,0,4.334-4.334v-30.1a4.339,4.339,0,0,0-4.334-4.334ZM8.43,51.038V23.159h8.035A19.464,19.464,0,1,0,55.13,26.344a19.649,19.649,0,0,0-.261-3.184H62.9V51.038ZM36.674,27.543a2.713,2.713,0,0,1,0,5.036V27.543Zm-2.013-2.4a2.712,2.712,0,0,1-1.653-1.984h1.653Zm-3.687-1.984a4.722,4.722,0,0,0,3.687,4.083v5.337a2.71,2.71,0,0,1-1.7-2.518,1.006,1.006,0,1,0-2.013,0,4.724,4.724,0,0,0,3.718,4.616V35.5a1.006,1.006,0,0,0,2.013,0v-.823a4.725,4.725,0,0,0,0-9.233V23.159h11.18a12.6,12.6,0,1,1-24.375,0h7.5Zm4.693,17.793A14.607,14.607,0,0,0,49.924,23.159h2.9a17.45,17.45,0,1,1-34.317,0h2.9A14.607,14.607,0,0,0,35.668,40.952ZM24.4,13.282a11.268,11.268,0,1,1,22.536,0,11.14,11.14,0,0,1-.905,4.431H44.693a10.053,10.053,0,1,0-18.052,0H25.3A11.14,11.14,0,0,1,24.4,13.282Zm10.4-1.133a1.6,1.6,0,0,1,0-2.68Zm1.745,4.944V14.414a1.6,1.6,0,0,1,0,2.679Zm0-4.568V9.469a1.6,1.6,0,0,1,.727,1.339.872.872,0,0,0,1.745,0A3.35,3.35,0,0,0,36.54,7.581v-.39a.872.872,0,1,0-1.745,0v.39a3.344,3.344,0,0,0,0,6.457v3.056a1.6,1.6,0,0,1-.728-1.34.872.872,0,1,0-1.745,0,3.326,3.326,0,0,0,.637,1.96h-4a7.952,7.952,0,0,1-1.333-4.431,8.04,8.04,0,1,1,16.081,0,7.958,7.958,0,0,1-1.332,4.431h-4a3.341,3.341,0,0,0-1.835-5.188Zm-25.788,7.2H60.583a2.325,2.325,0,0,1,2.139,1.421H8.612a2.325,2.325,0,0,1,2.139-1.421ZM45.346,58.209H25.988l1.6-1.725H43.743Zm15.237-3.738H10.751a2.325,2.325,0,0,1-2.139-1.421h54.11A2.325,2.325,0,0,1,60.583,54.471Z" transform="translate(-6.417)" fill="#d7df23"/>
</svg>
