<svg xmlns="http://www.w3.org/2000/svg" xmlns:xlink="http://www.w3.org/1999/xlink" width="128.929" height="156.095" viewBox="0 0 128.929 156.095">
  <defs>
    <filter id="Path_18" x="0" y="0" width="128.929" height="156.095" filterUnits="userSpaceOnUse">
      <feOffset dx="13" dy="15" input="SourceAlpha"/>
      <feGaussianBlur stdDeviation="6.5" result="blur"/>
      <feFlood flood-opacity="0.161"/>
      <feComposite operator="in" in2="blur"/>
      <feComposite in="SourceGraphic"/>
    </filter>
  </defs>
  <g id="Group_6731" data-name="Group 6731" transform="translate(1347.944 -810.453)">
    <g id="Group_6729" data-name="Group 6729" transform="translate(-1643 -43)">
      <g id="Group_6625" data-name="Group 6625" transform="translate(299.816 854.721)">
        <g transform="matrix(1, 0, 0, 1, -4.76, -1.27)" filter="url(#Path_18)">
          <path id="Path_18-2" data-name="Path 18" d="M0,0H71.194L89.929,18.735v98.36H0Z" transform="translate(6.5 4.5)" fill="#fff"/>
        </g>
        <g id="signing-the-contract-svgrepo-com">
          <g id="Group_6620" data-name="Group 6620" transform="translate(0 0)">
            <g id="Group_6619" data-name="Group 6619" transform="translate(0 0)">
              <path id="Path_10" data-name="Path 10" d="M88.764,22.871h17.717V40.982l3.452-4.282V22.871a2.414,2.414,0,0,0-.7-1.7L88.764.7a2.407,2.407,0,0,0-1.7-.7H23.787a7.229,7.229,0,0,0-7.221,7.22V116.337a7.229,7.229,0,0,0,7.221,7.22h78.924a7.229,7.229,0,0,0,7.221-7.22V76.153l-3.452,8.258v35.783H20.236V3.364H88.764V22.871C88.764,24.518,87.118,22.871,88.764,22.871Z" transform="translate(-16.566 0)" fill="#285460"/>
            </g>
          </g>
        </g>
        <path id="Path_19" data-name="Path 19" d="M388.2,936.368l3.56,2.623,17.611-23.981-4.122-2.81Z" transform="translate(-309.948 -861.944)" fill="#e7ec75"/>
      </g>
      <g id="Group_6626" data-name="Group 6626" transform="translate(314.357 874.681)">
        <path id="Path_13" data-name="Path 13" d="M76.5,73.346H99.451a2.942,2.942,0,1,0,0-5.884H76.5a2.942,2.942,0,0,0,0,5.884Z" transform="translate(-73.563 -67.462)" fill="#54a958"/>
        <path id="Path_14" data-name="Path 14" d="M120.044,120.4a2.942,2.942,0,0,0-2.942-2.942H76.5a2.942,2.942,0,0,0,0,5.884h40.6A2.942,2.942,0,0,0,120.044,120.4Z" transform="translate(-73.563 -102.753)" fill="#54a958"/>
        <path id="Path_15" data-name="Path 15" d="M76.5,173.346H99.451a2.942,2.942,0,1,0,0-5.884H76.5a2.942,2.942,0,1,0,0,5.884Z" transform="translate(-73.563 -138.044)" fill="#54a958"/>
        <path id="Path_16" data-name="Path 16" d="M76.5,223.346H99.451a2.942,2.942,0,1,0,0-5.884H76.5a2.942,2.942,0,0,0,0,5.884Z" transform="translate(-73.563 -173.334)" fill="#54a958"/>
        <path id="Path_17" data-name="Path 17" d="M83.771,306.613c-.573.74.46,1.789,1.04,1.039a40.343,40.343,0,0,0,4.6-7.588,3.013,3.013,0,0,0,2.667.06,12.174,12.174,0,0,0,3.242-2.252c.583-.5,1.261-1.318,2.068-1.4.616-.059,1.448.437,2.064.542a13.126,13.126,0,0,0,5.041-.575c1.474-.364,3.2-.94,4.068-2.274.519-.8-.755-1.534-1.27-.742-.695,1.068-2.391,1.4-3.537,1.684a10.978,10.978,0,0,1-4.293.424c-1.045-.178-1.89-.81-2.964-.331-1.439.641-2.539,1.989-3.809,2.9a3.979,3.979,0,0,1-1.93.853.946.946,0,0,1-.73-.264c.157-.363.312-.728.46-1.1a53.6,53.6,0,0,0,2.749-10.928c.338-1.906.9-4.909-1.831-5.093-2.414-.161-4.5,3.32-5.271,5.155a12.837,12.837,0,0,0-.714,5.3,16.131,16.131,0,0,0,.715,3.355c-2.316.372-4.358,2.711-4,5.031.352,2.282,3.206,1.1,4.272.259a3.714,3.714,0,0,0,1.439-3.074,12.7,12.7,0,0,1,.581,1.177A38.264,38.264,0,0,1,83.771,306.613Zm2.578-8.326a3.068,3.068,0,0,1-2.412,2.018c-.76.071-.3-1.288-.146-1.591a4.172,4.172,0,0,1,2.624-1.845A4.493,4.493,0,0,1,86.349,298.288Zm1.229-2.848a29.6,29.6,0,0,1-.688-3.408,10.46,10.46,0,0,1,1.208-6c.636-1.121,1.932-2.84,3.306-2.987,1.228-.131.479,2.855.373,3.455-.329,1.852-.563,3.689-1.021,5.52a41.321,41.321,0,0,1-1.609,5.029A2.359,2.359,0,0,0,87.577,295.44Z" transform="translate(-79.584 -218.584)" fill="#54a958"/>
      </g>
      <g id="Group_6624" data-name="Group 6624" transform="translate(363.648 884.558)">
        <path id="Path_11" data-name="Path 11" d="M37.1,7.236,34.121,5.288a1.052,1.052,0,0,0-1.456.305L16.612,30.157l-3.087-2.017L29.578,3.576a1.052,1.052,0,0,0-.305-1.456L26.292.172a1.052,1.052,0,0,0-1.456.305L.8,37.258a1.055,1.055,0,0,0-.17.523L0,50.546a1.052,1.052,0,0,0,1.52.993l11.438-5.7a1.048,1.048,0,0,0,.412-.366L37.407,8.691A1.05,1.05,0,0,0,37.1,7.236Z" transform="translate(2.703 16.027) rotate(3)" fill="#285460"/>
        <path id="Path_12" data-name="Path 12" d="M21.942,8.048,9.919.191A1.171,1.171,0,0,0,8.3.53L.191,12.938a1.171,1.171,0,0,0,.339,1.62l12.023,7.856a1.17,1.17,0,0,0,1.62-.339L22.281,9.668A1.17,1.17,0,0,0,21.942,8.048Z" transform="translate(30.213 0) rotate(3)" fill="#285460"/>
      </g>
    </g>
  </g>
</svg>
