<svg xmlns="http://www.w3.org/2000/svg" xmlns:xlink="http://www.w3.org/1999/xlink" width="134.5" height="138.5" viewBox="0 0 134.5 138.5">
  <defs>
    <filter id="Rectangle_994" x="7" y="42" width="127.5" height="96.5" filterUnits="userSpaceOnUse">
      <feOffset dx="23" dy="23" input="SourceAlpha"/>
      <feGaussianBlur stdDeviation="7.5" result="blur"/>
      <feFlood flood-opacity="0.231"/>
      <feComposite operator="in" in2="blur"/>
      <feComposite in="SourceGraphic"/>
    </filter>
    <filter id="Rectangle_994-2" x="7" y="42" width="127.5" height="96.5" filterUnits="userSpaceOnUse">
      <feOffset dx="23" dy="23" input="SourceAlpha"/>
      <feGaussianBlur stdDeviation="7.5" result="blur-2"/>
      <feFlood flood-opacity="0.231"/>
      <feComposite operator="in" in2="blur-2"/>
      <feComposite in="SourceGraphic"/>
    </filter>
  </defs>
  <g id="Group_6747" data-name="Group 6747" transform="translate(-299 -1851)">
    <g id="Group_6723" data-name="Group 6723" transform="translate(241 -166)">
      <g id="Group_6722" data-name="Group 6722" transform="translate(58 2017)">
        <g id="store-svgrepo-com">
          <path id="Path_1200" data-name="Path 1200" d="M95,1.516A1.516,1.516,0,0,0,93.484,0H1.516A1.516,1.516,0,0,0,0,1.516V23.068A16.749,16.749,0,0,0,3.18,32.9V93.484A1.516,1.516,0,0,0,4.7,95H90.3a1.516,1.516,0,0,0,1.516-1.516V32.9A16.749,16.749,0,0,0,95,23.068V1.516ZM91.968,23.068a13.811,13.811,0,0,1-27.539,1.516H87.42a1.516,1.516,0,1,0,0-3.032H7.58a1.516,1.516,0,0,0,0,3.032H30.571A13.811,13.811,0,0,1,3.032,23.068V3.032H30.656V17a1.516,1.516,0,0,0,3.032,0V3.032H61.312V17a1.516,1.516,0,1,0,3.032,0V3.032H91.968ZM6.212,91.968V36.121a16.829,16.829,0,0,0,25.96-6.071,16.843,16.843,0,0,0,30.656,0,16.829,16.829,0,0,0,25.96,6.071V91.968H6.212ZM47.5,36.88a13.83,13.83,0,0,1-13.727-12.3H61.227A13.83,13.83,0,0,1,47.5,36.88Z" fill="#285460"/>
        </g>
        <g transform="matrix(1, 0, 0, 1, 0, 0)" filter="url(#Rectangle_994)">
          <rect id="Rectangle_994-3" data-name="Rectangle 994" width="82" height="51" transform="translate(7 42)" fill="#edf096"/>
        </g>
      </g>
      <g id="Group_6713" data-name="Group 6713" transform="translate(32 471)">
        <g id="Group_6712" data-name="Group 6712" transform="translate(26 1546)">
          <g id="store-svgrepo-com-2" data-name="store-svgrepo-com">
            <path id="Path_1200-2" data-name="Path 1200" d="M95,1.516A1.516,1.516,0,0,0,93.484,0H1.516A1.516,1.516,0,0,0,0,1.516V23.068A16.749,16.749,0,0,0,3.18,32.9V93.484A1.516,1.516,0,0,0,4.7,95H90.3a1.516,1.516,0,0,0,1.516-1.516V32.9A16.749,16.749,0,0,0,95,23.068V1.516ZM91.968,23.068a13.811,13.811,0,0,1-27.539,1.516H87.42a1.516,1.516,0,1,0,0-3.032H7.58a1.516,1.516,0,0,0,0,3.032H30.571A13.811,13.811,0,0,1,3.032,23.068V3.032H30.656V17a1.516,1.516,0,0,0,3.032,0V3.032H61.312V17a1.516,1.516,0,1,0,3.032,0V3.032H91.968ZM6.212,91.968V36.121a16.829,16.829,0,0,0,25.96-6.071,16.843,16.843,0,0,0,30.656,0,16.829,16.829,0,0,0,25.96,6.071V91.968H6.212ZM47.5,36.88a13.83,13.83,0,0,1-13.727-12.3H61.227A13.83,13.83,0,0,1,47.5,36.88Z" fill="#285460"/>
          </g>
          <g transform="matrix(1, 0, 0, 1, 0, 0)" filter="url(#Rectangle_994-2)">
            <rect id="Rectangle_994-4" data-name="Rectangle 994" width="82" height="51" transform="translate(7 42)" fill="#edf096"/>
          </g>
        </g>
        <path id="product-service-campaign-svgrepo-com" d="M23.127,34.007a.778.778,0,0,1,.778.682V45.752a2.343,2.343,0,0,1-2.228,2.343H5.908a2.353,2.353,0,0,1-2.343-2.189V34.794a.778.778,0,0,1,.682-.778h18.88Zm22.673,0a.787.787,0,0,1,.778.682V45.752a2.343,2.343,0,0,1-2.238,2.343H28.572a2.343,2.343,0,0,1-2.334-2.189V34.794a.778.778,0,0,1,.682-.778H45.751ZM17.067,37.243l-.086.067L12.563,42.17l-2.026-1.921a.6.6,0,0,0-.759-.067l-.077.067L8.866,41a.471.471,0,0,0-.067.682l.067.077,2.881,2.718a1.2,1.2,0,0,0,.835.346,1.1,1.1,0,0,0,.835-.346l5.3-5.608a.6.6,0,0,0,.058-.691l-.058-.067-.835-.749a.586.586,0,0,0-.816-.115Zm22.673,0-.086.067L35.179,42.17l-2.026-1.921a.586.586,0,0,0-.749-.067l-.086.067L31.481,41a.471.471,0,0,0-.058.682l.058.077,2.881,2.718a1.2,1.2,0,0,0,.835.346,1.1,1.1,0,0,0,.835-.346l5.339-5.656a.624.624,0,0,0,0-.691v-.067l-.835-.749a.586.586,0,0,0-.8-.067ZM21.725,26.18A2.266,2.266,0,0,1,23.9,28.37v2.506a.778.778,0,0,1-.634.778H2.73A.749.749,0,0,1,2,30.982V28.533A2.286,2.286,0,0,1,4.045,26.19H21.725Zm24.18,0a2.266,2.266,0,0,1,2.189,2.189v2.506a.778.778,0,0,1-.634.778H26.91a.749.749,0,0,1-.72-.682V28.533a2.286,2.286,0,0,1,2.045-2.343h17.67ZM34.381,9.855a.778.778,0,0,1,.768.682V21.561A2.343,2.343,0,0,1,32.96,23.9H17.24a2.362,2.362,0,0,1-2.343-2.2V10.643a.778.778,0,0,1,.682-.768H34.42ZM28.36,13.092l-.077.067-4.475,4.859L21.782,16.1a.586.586,0,0,0-.749-.067l-.086.067-.835.749a.48.48,0,0,0-.067.682l.067.077,2.881,2.708a1.172,1.172,0,0,0,.835.355,1.085,1.085,0,0,0,.835-.355l5.31-5.6a.624.624,0,0,0,.048-.691l-.048-.067-.835-.749a.6.6,0,0,0-.739-.144ZM34.42,2a2.343,2.343,0,0,1,2.334,2.189V6.7a.8.8,0,0,1-.682.778H14.119a.778.778,0,0,1-.778-.672V4.343A2.343,2.343,0,0,1,15.521,2Z" transform="translate(48.453 1587.619)" fill="#54a958"/>
      </g>
      <g id="Group_6721" data-name="Group 6721" transform="translate(-240.5 166)">
        <path id="Path_1209" data-name="Path 1209" d="M1904.75,1664.5c10.75,16,25.75,5.5,25.75,5.5v57.25h-82.25V1670s14.25,12.25,25.5-5.5" transform="translate(-1543 217)" fill="#fff"/>
        <path id="Path_1210" data-name="Path 1210" d="M1888.25,1674s7.75,2.5,17.25-9.5" transform="translate(-1543 217)" fill="#fff"/>
        <path id="Path_1211" data-name="Path 1211" d="M1905.5,1674s-7.75,2.5-17.25-9.5" transform="translate(-1558 217)" fill="#fff"/>
      </g>
      <path id="Path_1212" data-name="Path 1212" d="M1874.5,1659s4.75,15.25,16,15.25,14.75-15.25,14.75-15.25Z" transform="translate(-1784 383)" fill="#edf096" stroke="#285460" stroke-width="2"/>
    </g>
    <path id="product-service-campaign-svgrepo-com-2" data-name="product-service-campaign-svgrepo-com" d="M21.708,31.858a.726.726,0,0,1,.726.636v10.32A2.186,2.186,0,0,1,20.356,45H5.646A2.195,2.195,0,0,1,3.46,42.957V32.593a.726.726,0,0,1,.636-.726H21.708Zm21.151,0a.735.735,0,0,1,.726.636v10.32A2.186,2.186,0,0,1,41.5,45H26.788a2.186,2.186,0,0,1-2.177-2.043V32.593a.726.726,0,0,1,.636-.726H42.814Zm-26.8,3.019-.081.063-4.121,4.533-1.89-1.792a.555.555,0,0,0-.708-.063l-.072.063-.779.7a.439.439,0,0,0-.063.636l.063.072,2.687,2.535a1.12,1.12,0,0,0,.779.323,1.03,1.03,0,0,0,.779-.323L17.6,36.391a.564.564,0,0,0,.054-.645l-.054-.063-.779-.7a.546.546,0,0,0-.761-.108Zm21.151,0-.081.063-4.175,4.533-1.89-1.792a.546.546,0,0,0-.7-.063l-.081.063-.779.7a.439.439,0,0,0-.054.636l.054.072,2.687,2.535a1.12,1.12,0,0,0,.779.323,1.021,1.021,0,0,0,.779-.323l4.981-5.276a.582.582,0,0,0,0-.645v-.063l-.779-.7a.546.546,0,0,0-.744-.063ZM20.4,24.557A2.114,2.114,0,0,1,22.434,26.6v2.338a.726.726,0,0,1-.591.726H2.681A.7.7,0,0,1,2,29.036V26.752a2.132,2.132,0,0,1,1.908-2.186H20.4Zm22.557,0A2.114,2.114,0,0,1,45,26.6v2.338a.726.726,0,0,1-.591.726H25.238a.7.7,0,0,1-.672-.636V26.752a2.132,2.132,0,0,1,1.908-2.186H42.957ZM32.207,9.328a.726.726,0,0,1,.717.636V20.248a2.186,2.186,0,0,1-2.042,2.186H16.217a2.2,2.2,0,0,1-2.186-2.051V10.062a.726.726,0,0,1,.636-.717H32.243Zm-5.617,3.019-.072.063-4.175,4.533-1.89-1.792a.546.546,0,0,0-.7-.063l-.081.063-.779.7a.448.448,0,0,0-.063.636l.063.072,2.687,2.526a1.093,1.093,0,0,0,.779.331,1.012,1.012,0,0,0,.779-.331L28.1,13.861a.582.582,0,0,0,.045-.645l-.045-.063-.779-.7a.555.555,0,0,0-.69-.134ZM32.243,2A2.186,2.186,0,0,1,34.42,4.043V6.381a.744.744,0,0,1-.636.726H13.305a.726.726,0,0,1-.726-.627V4.186A2.186,2.186,0,0,1,14.613,2Z" transform="translate(323.453 1894)" fill="#54a958"/>
  </g>
</svg>
